<?xml version="1.0" encoding="utf-8"?>
<!-- Generator: Adobe Illustrator 21.0.0, SVG Export Plug-In . SVG Version: 6.00 Build 0)  -->
<svg version="1.1" id="Calque_1" xmlns="http://www.w3.org/2000/svg" xmlns:xlink="http://www.w3.org/1999/xlink" x="0px" y="0px"
	 viewBox="0 0 8 14.5" style="enable-background:new 0 0 8 14.5;" xml:space="preserve">
<style type="text/css">
	.st0{fill:#8E8E8E;}
</style>
<title>Fichier 26</title>
<g id="Calque_2">
	<g id="Calque_1-2">
		<path class="st0" d="M7.4,0.1C7.3,0,7.1,0,7,0.1c0,0,0,0,0,0L0.1,7.1C0,7.1,0,7.2,0,7.3c0,0.1,0,0.1,0.1,0.2L7,14.4
			c0.1,0.1,0.3,0.1,0.4,0c0,0,0,0,0,0l0.6-0.5c0.1-0.1,0.1-0.3,0-0.4c0,0,0,0,0,0L1.7,7.3L7.9,1C8.1,1,8.1,0.8,8,0.7c0,0,0,0,0,0
			L7.4,0.1z"/>
	</g>
</g>
</svg>
