<?xml version="1.0" encoding="utf-8"?>
<!-- Generator: Adobe Illustrator 21.0.0, SVG Export Plug-In . SVG Version: 6.00 Build 0)  -->
<svg version="1.1" id="Calque_1" xmlns="http://www.w3.org/2000/svg" xmlns:xlink="http://www.w3.org/1999/xlink" x="0px" y="0px"
	 viewBox="0 0 8 14.5" style="enable-background:new 0 0 8 14.5;" xml:space="preserve">
<style type="text/css">
	.st0{fill:#32c5d2;}
</style>
<title>Fichier 27</title>
<g id="Calque_2">
	<g id="Calque_1-2">
		<path class="st0" d="M0.6,14.4c0.1,0.1,0.3,0.1,0.4,0c0,0,0,0,0,0l7-7C8,7.4,8,7.3,8,7.3c0-0.1,0-0.1,0-0.2l-7-7
			C0.9,0,0.8,0,0.7,0.1c0,0,0,0,0,0L0.1,0.6C0,0.7,0,0.9,0.1,1c0,0,0,0,0,0l6.3,6.3l-6.3,6.3c-0.1,0.1-0.1,0.3,0,0.4c0,0,0,0,0,0
			L0.6,14.4z"/>
	</g>
</g>
</svg>
