<svg xmlns="http://www.w3.org/2000/svg" viewBox="0 0 60.97 59.14"><defs><style>.cls-1{fill:#a984bf;}</style></defs><title>Fichier 1</title><g id="Calque_2" data-name="Calque 2"><g id="Capa_1" data-name="Capa 1"><path class="cls-1" d="M5.19,11.45l1.67-.36A3.57,3.57,0,0,0,9.59,6.85L8.71,2.8A3.58,3.58,0,0,0,5.23,0a3.53,3.53,0,0,0-.75.08L2.81.44A3.57,3.57,0,0,0,.08,4.68L1,8.73a3.58,3.58,0,0,0,3.48,2.81A3.53,3.53,0,0,0,5.19,11.45ZM2.92,8.3,2,4.25A1.57,1.57,0,0,1,3.23,2.4L4.9,2A1.56,1.56,0,0,1,6.75,3.23l.88,4A1.56,1.56,0,0,1,6.44,9.13L4.77,9.5A1.58,1.58,0,0,1,2.92,8.3Zm57,34L44.19,26.59a8.14,8.14,0,0,0-5.08-2.1H35.68V21.05a3.4,3.4,0,0,0,3.56-3.2,3.4,3.4,0,0,0-3.56-3.2h-10a3.4,3.4,0,0,0-3.56,3.2,3.4,3.4,0,0,0,3.56,3.2V24.5h-.58A6.15,6.15,0,0,1,21.41,23l-9.92-9.92a3.65,3.65,0,0,0-5,0L5.24,14.27a3.57,3.57,0,0,0,0,5L17.18,31.22a8.13,8.13,0,0,0,5.08,2.1h7.41v8.13H25.55a1,1,0,0,0-1,1v4.12h-2.2a3.56,3.56,0,0,0-3.56,3.56v5.44a3.56,3.56,0,0,0,3.56,3.56H42.83a3.56,3.56,0,0,0,3.56-3.56V50.14a3.56,3.56,0,0,0-3.56-3.56h-2.2V42.46a1,1,0,0,0-1-1H35.51V33.32h.82A6.16,6.16,0,0,1,40,34.84l13.7,13.7a3.57,3.57,0,0,0,5,0l1.21-1.21a3.56,3.56,0,0,0,0-5ZM24.09,17.85a1.44,1.44,0,0,1,1.56-1.2h10a1.44,1.44,0,0,1,1.56,1.2,1.44,1.44,0,0,1-1.56,1.2h-10A1.44,1.44,0,0,1,24.09,17.85Zm3.56,3.2h6V24.5h-6ZM44.39,50.13v5.44a1.56,1.56,0,0,1-1.56,1.56H22.35a1.56,1.56,0,0,1-1.56-1.56V50.13a1.56,1.56,0,0,1,1.56-1.56H42.83A1.56,1.56,0,0,1,44.39,50.13Zm-5.76-3.56H26.55V43.46H38.63Zm-5.12-5.12H31.67V33.32h1.84Zm2.82-10.13H22.26A6.16,6.16,0,0,1,18.6,29.8L6.66,17.89a1.57,1.57,0,0,1,0-2.2l1.21-1.21a1.57,1.57,0,0,1,2.21,0L20,24.4a8.13,8.13,0,0,0,5.08,2.1h.58v2.25a1,1,0,0,0,2,0V26.5h6v2.25a1,1,0,0,0,2,0V26.49h3.43A6.16,6.16,0,0,1,42.78,28l12.93,12.9-3.28,3.54-11-11A8.13,8.13,0,0,0,36.33,31.32Zm22.19,14.6-1.21,1.21a1.61,1.61,0,0,1-2.21,0l-1.25-1.25,3.28-3.54,1.39,1.39a1.56,1.56,0,0,1,0,2.2Z"/></g></g></svg>