<svg xmlns="http://www.w3.org/2000/svg" viewBox="0 0 39 39"><defs><style>.cls-1{fill:#32c5d2;}</style></defs><title>Fichier 4</title><g id="Calque_2" data-name="Calque 2"><g id="Calque_1-2" data-name="Calque 1"><path class="cls-1" d="M28.19,11.13H25.93v-1a.32.32,0,0,0-.32-.32H23.36a.32.32,0,0,0-.32.32v1H16v-1a.32.32,0,0,0-.32-.32H13.39a.32.32,0,0,0-.32.32v1H10.81a.32.32,0,0,0-.32.32V28.83a.32.32,0,0,0,.32.32H28.19a.32.32,0,0,0,.32-.32V11.46a.32.32,0,0,0-.32-.32Zm-4.5-.64h1.61v1.93H23.68Zm-10,0h1.61v1.93H13.71Zm-2.57,1.29h1.93v1a.32.32,0,0,0,.32.32h2.25a.32.32,0,0,0,.32-.32v-1H23v1a.32.32,0,0,0,.32.32h2.25a.32.32,0,0,0,.32-.32v-1h1.93v2.9H11.14Zm0,16.73V15.32H27.86V28.51Zm0,0"/><path class="cls-1" d="M22.07,17.25H13.39v9.33H25.61V17.25Zm-2.25.64h2.25v2.25H19.82ZM22.07,23H19.82V20.79h2.25Zm-5.15-2.25h2.25V23H16.93Zm0-2.9h2.25v2.25H16.93Zm-2.9,0h2.25v2.25H14Zm0,2.9h2.25V23H14Zm2.25,5.15H14V23.68h2.25Zm2.9,0H16.93V23.68h2.25Zm2.9,0H19.82V23.68h2.25Zm2.9,0H22.72V23.68H25ZM25,23H22.72V20.79H25Zm0-5.15v2.25H22.72V17.89Zm0,0"/><path class="cls-1" d="M19.5,39A19.5,19.5,0,1,1,39,19.5,19.52,19.52,0,0,1,19.5,39Zm0-37.57A18.07,18.07,0,1,0,37.57,19.5,18.09,18.09,0,0,0,19.5,1.43Z"/></g></g></svg>