<svg xmlns="http://www.w3.org/2000/svg" viewBox="0 0 28.13 23.44"><defs><style>.cls-1{fill:#32c5d2;}</style></defs><title>Fichier 28</title><g id="Calque_2" data-name="Calque 2"><g id="Calque_1-2" data-name="Calque 1"><path class="cls-1" d="M26.38,0H24a1.76,1.76,0,0,0-1.67,1.21A1.69,1.69,0,0,0,20.86,2.6l-.56,2.09H.59A.59.59,0,0,0,0,5.43L.65,7.77a.59.59,0,0,0,.57.43h.49l1.45,5.43h0v.07l.05.09h0l0,0h0l0,0h0l0,0h0l0,0h0l0,0h.23l13.8,1.12-.33,1.23H4.67a.59.59,0,1,0,0,1.17H6.29L6,18.8a2.34,2.34,0,0,0,.46,4.64H9.36a.59.59,0,1,0,0-1.17h-.9a2.34,2.34,0,0,0-1.3-3.4l.35-1.29h7.26l.35,1.29a2.34,2.34,0,0,0,.73,4.57h5.86a.59.59,0,1,0,0-1.17H17.87a2.34,2.34,0,0,0-1.57-3.47L16,17.58h1.85l0,0h.06l0,0h0l0,0h0l0,0h0l0,0h0l0,0v-.12h0l.63-2.34h0l1.77-6.6h.49a.59.59,0,0,0,.57-.43l.63-2.34a.59.59,0,0,0-.57-.74h-.18L22,2.9c.07-.26.12-.43.4-.51A1.76,1.76,0,0,0,24,3.52h2.34a1.76,1.76,0,0,0,0-3.52ZM7.6,21.1a1.17,1.17,0,0,1-1.17,1.17h0a1.17,1.17,0,0,1,0-2.34h0A1.17,1.17,0,0,1,7.6,21.1Zm9.42,0a1.17,1.17,0,0,1-1.17,1.17h0a1.17,1.17,0,0,1,0-2.34h0A1.17,1.17,0,0,1,17,21.1ZM19,9.38H12.45a.59.59,0,1,0,0,1.17h6.27l-.31,1.17H15.34a.59.59,0,1,0,0,1.17H18.1L17.79,14l-13.6-1.1L2.92,8.21H19.35ZM20.61,7H1.66L1.35,5.86H20.92Zm5.77-4.69H24a.59.59,0,0,1,0-1.17h2.34a.59.59,0,1,1,0,1.17Z"/><path class="cls-1" d="M10.17,10.55h.35a.59.59,0,1,0,0-1.17h-.35a.59.59,0,0,0,0,1.17Z"/></g></g></svg>