<svg xmlns="http://www.w3.org/2000/svg" viewBox="0 0 39 39"><defs><style>.cls-1{fill:#32c5d2;}</style></defs><title>Fichier 1</title><g id="Calque_2" data-name="Calque 2"><g id="Calque_1-2" data-name="Calque 1"><path class="cls-1" d="M19.5,0A19.5,19.5,0,1,0,39,19.5,19.52,19.52,0,0,0,19.5,0Zm0,37.5a18,18,0,1,1,18-18,18,18,0,0,1-18,18Zm0,0"/><path class="cls-1" d="M28.69,11.5l-11.53,13-6.94-5.56a.75.75,0,1,0-.94,1.17l7.5,6a.76.76,0,0,0,.47.17.75.75,0,0,0,.56-.25l12-13.5a.75.75,0,1,0-1.12-1Zm0,0"/></g></g></svg>