<?xml version="1.0" encoding="utf-8"?>
<!-- Generator: Adobe Illustrator 21.0.0, SVG Export Plug-In . SVG Version: 6.00 Build 0)  -->
<svg version="1.1" id="Calque_1" xmlns="http://www.w3.org/2000/svg" xmlns:xlink="http://www.w3.org/1999/xlink" x="0px" y="0px"
	 viewBox="0 0 39 39" style="enable-background:new 0 0 39 39;" xml:space="preserve">
<style type="text/css">
	.st0{fill:#32C5D2;}
	.st1{fill:#FFFFFF;stroke:#FFFFFF;stroke-width:1.1;stroke-miterlimit:10;}
</style>
<title>Fichier 1</title>
<g id="Calque_2">
	<g id="Calque_1-2">
		<path class="st0" d="M19.5,0C8.7,0,0,8.7,0,19.5S8.7,39,19.5,39S39,30.3,39,19.5C39,8.7,30.3,0,19.5,0z"/>
		<path class="st1" d="M28.7,11.5l-11.5,13l-6.9-5.6c-0.3-0.3-0.8-0.2-1.1,0.1c-0.3,0.3-0.2,0.8,0.1,1.1l7.5,6
			c0.1,0.1,0.3,0.2,0.5,0.2c0.2,0,0.4-0.1,0.6-0.2l12-13.5c0.3-0.3,0.2-0.8-0.1-1.1C29.4,11.2,29,11.2,28.7,11.5L28.7,11.5z"/>
	</g>
</g>
</svg>
