<svg xmlns="http://www.w3.org/2000/svg" xmlns:xlink="http://www.w3.org/1999/xlink" viewBox="0 0 368.09 340.55"><defs><style>.cls-1{fill:#cecece;}.cls-2{opacity:0.44;}.cls-3{fill:#ededed;}.cls-4{fill:#bfbfbf;}.cls-5{fill:#919191;}.cls-6{fill:#fff;}.cls-7{fill:#e4e4e4;}.cls-8{fill:#c1c1c1;}.cls-9{clip-path:url(#clip-path);}.cls-10{fill:#a5a5a5;}.cls-11{fill:#d2d2d2;}.cls-12{fill:#929292;}.cls-13{fill:#d3d3d3;}</style><clipPath id="clip-path"><circle class="cls-1" cx="79.62" cy="205.33" r="55.5"/></clipPath></defs><title>Fichier 24</title><g id="Calque_2" data-name="Calque 2"><g id="Calque_1-2" data-name="Calque 1"><g class="cls-2"><ellipse class="cls-3" cx="187.48" cy="335.68" rx="142.09" ry="4.86"/><path class="cls-4" d="M123.95,96.77,122,95.56,99.8,103.37,99,105.53c-.14.4-3.35,9.83,1.86,17.71,3.67,5.56,10.29,8.7,19.66,9.32l2,.14,1.5-1.38c6.92-6.36,10.11-12.94,9.49-19.58C132.71,102.34,124.31,97,123.95,96.77Z"/><polygon class="cls-5" points="117.69 52.57 122.93 82.52 156.6 91.11 146.61 62.69 117.69 52.57"/><polygon class="cls-5" points="129.86 86.09 107.67 90.27 87.75 100.9 91.01 116.53 137.77 100.08 129.86 86.09"/><polygon class="cls-5" points="76.26 67.15 60.05 93.14 70.05 121.56 90.93 93.78 76.26 67.15"/><path class="cls-1" d="M79.08.86,75.92,0,74,2.66C73.1,3.88,52.31,33,61.74,59.8c5.62,16,23.16,37.6,23.91,38.51l2.11,2.58,42.11-14.81,0-3.33c0-1.18.15-29-5.47-45C115,11,80.55,1.26,79.08.86Z"/><circle class="cls-5" cx="93.58" cy="50.22" r="9.49" transform="translate(-11.36 33.9) rotate(-19.38)"/><path class="cls-6" d="M88.86,36.78A14.24,14.24,0,1,0,107,45.49,14.25,14.25,0,0,0,88.86,36.78Zm6.3,17.91a4.75,4.75,0,1,1,2.9-6.05A4.75,4.75,0,0,1,95.16,54.69Z"/><path class="cls-4" d="M58.71,254.86a14.46,14.46,0,0,0,0-6.28l.4-.23,2.61-1.48-1.51-2.56-1.51-2.56L57.2,239.2l-2.61,1.48-.41.23a13.36,13.36,0,0,0-2.33-1.83,11,11,0,0,0-2.79-1.31V234H39.8v3.78a7.38,7.38,0,0,0-3.11,1.31,15.38,15.38,0,0,0-2.59,1.83l-.43-.23L31,239.2l-1.51,2.56L28,244.32l-1.51,2.56,2.61,1.48.4.23a14.45,14.45,0,0,0,0,6.28l-.4.23-2.61,1.48L28,259.13l1.51,2.56L31,264.25l2.61-1.48.41-.23a15.8,15.8,0,0,0,2.64,1.83,7.38,7.38,0,0,0,3.11,1.31v3.63h9.27v-3.63a11,11,0,0,0,2.79-1.31,14.14,14.14,0,0,0,2.43-1.83l.36.23,2.58,1.48,1.49-2.56,1.5-2.56,1.5-2.56-2.61-1.48Zm-14.6,5.23a8.38,8.38,0,1,1,8.54-8.38A8.47,8.47,0,0,1,44.11,260.1Z"/><path class="cls-4" d="M346.33,275.51,341,269.78a.86.86,0,0,1,.45-1.44,5.21,5.21,0,1,0-6-6.47.86.86,0,0,1-1.47.35l-5.36-5.73-5.73,5.36a.86.86,0,0,1-1.44-.45,5.21,5.21,0,1,0-6.47,6,.86.86,0,0,1,.35,1.47l-5.73,5.36,5.36,5.73a.86.86,0,0,1-.45,1.44,5.21,5.21,0,1,0,6,6.47.86.86,0,0,1,1.47-.35l5.36,5.73Z"/><path class="cls-1" d="M242.63,117.43a6,6,0,0,1,.62,3.87,1,1,0,0,0,1.35,1.08l8.35-3.32-11-27.71-8.35,3.32a1,1,0,0,0-.24,1.71,6,6,0,1,1-9.43,3.74A1,1,0,0,0,222.58,99l-8.35,3.32,11,27.71,8.35-3.32a1,1,0,0,0,.24-1.71,6,6,0,1,1,8.81-7.61Z"/><rect class="cls-7" x="278.57" y="138.19" width="74.1" height="127.17" rx="13.81" ry="13.81" transform="translate(86.51 -94.6) rotate(19.7)"/><rect class="cls-1" x="270.49" y="160.13" width="92.25" height="74.1" transform="translate(24.23 428.78) rotate(-70.3)"/><polyline class="cls-1" points="267.06 228.39 336.82 253.38 367.92 166.52"/><rect class="cls-1" x="270.49" y="160.13" width="92.25" height="74.1" transform="translate(24.23 428.78) rotate(-70.3)"/><polyline class="cls-8" points="267.06 228.39 336.82 253.38 367.92 166.52"/><circle class="cls-6" cx="298.8" cy="251.44" r="6.7" transform="translate(-38.66 447.97) rotate(-70.3)"/><path class="cls-4" d="M307.95,85.6v25.84c0,4.63,2.22,10.77,7.18,10.77h11.76l21.6,9.37V122.2h7.31c5,0,8.33-6.24,8.33-10.77V85.6c0-4.59-3.22-7.41-8.33-7.41H315.12C310.17,78.19,307.95,80.93,307.95,85.6Z"/><circle class="cls-6" cx="347" cy="99.24" r="3.78"/><circle class="cls-6" cx="335.65" cy="99.24" r="3.78"/><circle class="cls-6" cx="324.14" cy="99.24" r="3.78"/><path class="cls-1" d="M318.41,55.6H268.29c-6.29,0-10.15,3.92-10.15,9.57V97c0,5.57,4,13,10.15,13h9v11.79L303.91,110h14.5c6.1,0,9.81-7.32,9.81-13V65.17C328.22,59.43,324.51,55.6,318.41,55.6Z"/><circle class="cls-6" cx="279.12" cy="81.99" r="4.66"/><circle class="cls-6" cx="293.11" cy="81.99" r="4.66"/><circle class="cls-6" cx="307.29" cy="81.99" r="4.66"/><circle class="cls-1" cx="79.62" cy="205.33" r="55.5"/><g class="cls-9"><path class="cls-8" d="M31.09,176.11c-.63,4.59,1,7,0,9.18S29,191.47,30,194.16s2.38,8.55,3.64,8.71-.95-6.33.32-4.28,1.27,5.12,3.48,7.23,5.23,1.79,7.6,3.85,4.75,5.07,7,4.75a17,17,0,0,1-1.27,4.28c-1.11,2.69-1.27,5.86.16,7.76s2.85,4.75,4.12,6.18,2.22,9,1.9,12.83,1.43,12.35,5.38,14.25,0-1-.79-3.33.61-7.92,2.52-8.71,3.65-4,5.08-6.18,5.07-3.17,6.17-5.86.63-5.86,1.27-7.28,2.37-4.59-1.43-6.49-5.38-.95-5.54-2.69a4.9,4.9,0,0,0-3.8-4.43c-2.69-.79-5.07-2.33-8.08-2.67s-3.64,2-5.23.77A10.57,10.57,0,0,1,49,208.73c-.63-1.58-2.53-.63-2.37-1.58s2.69-3.64-.16-2.69-5.38.63-5.23-1.9,3.64-3.48,5.07-3.8,2.53,1.43,4.28,2.53.16-1.58,1.11-3.48,4.59-1.74,5.07-4.43-.16-4.91,2.69-5.23,5.86.16,6.18-1.27-3.33.48-3.48-1.27,3.17-4.12,4.12-2.38,3.33,1.9,3.64,1.27,0-1.74-1.11-4.43-2.22-1.9-3.17-4.91-2.53.16-4.12-1.43-3.48-4.91-3.8-2.06-.32,4.43-1.74,6.65-2.06.48-3.33-.95-4.12-2.85-3.17-4.12,1.9-4.59,3.33-3.64,3.64.95,3.33-.63a3,3,0,0,1,.63-3c.63-.79,2.85-2.22,2.85.63s-.32,3.64,1.9,4,4.75.48,4.59-.95.63-1.11,0-3.48-2.53-2.53-4.59-3.64-3.17-2.85-4.91-2.22-1.9,1.27-2.06,3-1.11,2.38-1.74,1.58.16-3.32-2.22-1.74S47.24,167.4,46,165.5s1.9-5.23-1.43-3.8-5.7,3-4,3.64,3.48,1.74,1.74,2.37-5.23-.47-6.49.79S31.09,176.11,31.09,176.11Z"/><path class="cls-8" d="M49.77,159c0,1.77.47,3.17,2.06,1.58s2.53-3.48,3.64-2.69,3,.58,3.8.53,1-2.43,3.17-2.11,1.43-.48,3.8-1.74,7.44-3.48,2.22-2.85-5.54-.79-9.18,1.58a51.73,51.73,0,0,1-5.38,3c-.95.63-2.06-1.9-3.33,0S49.78,157.21,49.77,159Z"/><path class="cls-8" d="M68.78,154.1c-1.87,1.62-4.75,4-2.53,4s3.29-1.16,4.5.37.73,3.91.73,5a11.8,11.8,0,0,0,1,6.81c1.58,3.17,1.74,5.23,3.33,3.17s5.38-6,7.28-6.33a6.62,6.62,0,0,0,4.75-2.69c1-1.58,0-3.12,1.58-4.25s1.27-2.56,1.74-4.3,4.75-1.74,2.85-2.69a18.09,18.09,0,0,0-9.5-1.11C80.33,152.52,72.26,151.09,68.78,154.1Z"/><path class="cls-8" d="M51.36,203c-1,1.64-.48,1.74.63,2.06s-.47,2.22.79,2.38,4.12.95,4.91,0-1.27-.58-2.69-1.64S52.07,201.86,51.36,203Z"/><path class="cls-8" d="M128,228.84c-1.71.85-.95,2.22-2.53,3.17s-.95,1.27-1.42,3.48.16,3.48,1.27,1.74S129.9,227.89,128,228.84Z"/><path class="cls-8" d="M137,202.24c-.47-2.69-4-27.08-4-27.08s-9.34-6-10.93-4.75-4.28,1.08-4-.17,2.37-.93-1.11-3.31-4.12-4.43-6.81-1.42-3.33,5.54-4.91,6.33-2.85,3.33-1.11,4,1.9,0,3.33,1.27,3.33,1,3.64.16a34,34,0,0,0,.79-4.28c.16-1,1.77-4.12,1.6-1.58s2.2,2.53.62,4.28-.63,3.17-3.8,3.48-3.33-1.58-5.07-.63-1.58,1.58-2.22,2.53-4,2.85-4,2.85-2.69-1-1.43.79,2.38,3.8,1.27,4-4.12-1.58-4.12.32-.48,4,.79,4.43c.89.33,1.48,1.06,2.3,1a4.08,4.08,0,0,0-1.66,1.26c-1.23,1.61-.47,4.43-3,5.38s-2.53,2.06-3,4.12,0,7.28.63,7.76,1.74,4.43,4.43,4.12,5.54-.44,6.49,0,2.53-1,3,2.67,1.58,4.12,2.22,6-.32,5.86,0,8.23,2.53,6.49,2.53,8.55a2.53,2.53,0,0,0,3.64,2.22c1.27-.79,4-2.37,5.07-4.91s1.11-3.8,2.85-7.13,1.27-5.7,2.06-8.23,2.7-4.28,5.31-7.13,2.14-4.43,0-4.28-3.57-1.9-4.67-4.43-2.37-8.87-1.42-6.81,2.85,7.76,4.75,8.71,5.38-1.61,6.18-2.55.47-3.63-1.58-4.74-.79-2.06,1.27-.79S137.5,204.93,137,202.24Zm-16.78-6.81c-.16,1.27.47,3.33-3,2.53s-3.48-2.69-4.91-1.27-3.17,2.69-5.23.48-1.74-2.85-2.85-3a13.39,13.39,0,0,0-5.62-.06,3.48,3.48,0,0,0,.55-.41c1.58-1.43,1.27-1.9,3-3.48s3-3,4.28-1.58,4,1.74,3,3.33-.32,2.53.79,1.58,2.69-1.58,1.58-2.85-2.22-4.59-.63-2.37,2.06,3.33,3,4.59,1.9,2.06,2.22,1.27-.16-2.53.32-2.85,0,2.69,1.43,2.85S120.4,194.16,120.24,195.43Zm3.64-5.38c-1.11-.63-3.17,0-5.7.79s-.51-1.76.63-3.48c1-1.54.47.47,2.69.63S125,190.68,123.88,190Zm5.54,4.91c-.47.48-1.27-2.22-1.74-3.48a4.57,4.57,0,0,1,.87-4.69c1.67-1.53.87,2,.87,3.9S129.9,194.48,129.42,195Z"/><path class="cls-8" d="M98.86,175.64a2.74,2.74,0,0,0-1.27,3.17c.48,1-.47-.48-1.74.32s-3.15,3-1.42,3.17,1.42-1.27,3-.63,3.33.47,3.33-1.11S100.44,175.16,98.86,175.64Z"/><path class="cls-8" d="M88.57,168.35c-1,.14-1.27,2.53.79,2.85s5.74-.48,4.38-1.74S90.78,168,88.57,168.35Z"/></g><polygon class="cls-10" points="188.14 251.44 284.53 179.7 95.04 179.7 188.14 251.44"/><path class="cls-3" d="M98.51,294.36s7.91,6.59,13.35,6.59H267.72a16.81,16.81,0,0,0,16.81-16.81V179.7Z"/><path class="cls-7" d="M281.06,294.36A16.78,16.78,0,0,1,267.72,301H111.85A16.81,16.81,0,0,1,95,284.14V179.7S269.62,288.07,281.06,294.36Z"/><path class="cls-11" d="M98.51,294.36h0q.28.36.57.71l.05.06q.28.32.57.63l.06.06q.31.32.64.63h0a16.9,16.9,0,0,0,2.2,1.72l.11.07.65.4.18.1.63.34.19.1.67.31.16.07a16.68,16.68,0,0,0,1.73.64l.19.05.68.19.3.07.6.13.34.06.59.09.34,0,.64.06c.1,0,.2.12.3.13.31,0,.63.13.95.13H267.72c.32,0,.63-.12.95-.13.1,0,.2-.07.3-.08s.43-.06.64-.08l.34-.06.59-.09.34-.06.6-.13.3-.07.68-.19.19-.05a16.69,16.69,0,0,0,1.73-.64l.16-.07.67-.31.19-.1.63-.34.18-.1.65-.4.11-.07a16.9,16.9,0,0,0,2.2-1.72h0q.33-.31.64-.63l.06-.06q.29-.31.57-.63l.05-.06q.3-.35.57-.71h0c-5.72-3.15-91.28-55.65-91.28-55.65S104.23,291.21,98.51,294.36Z"/><path class="cls-4" d="M95,179.83,181.1,103a14.46,14.46,0,0,1,17.37,0l86.06,76.85Z"/><polygon class="cls-6" points="190.02 238.77 266.83 190.8 266.83 118.73 114.51 118.73 114.51 191.62 190.02 238.77"/><polygon class="cls-4" points="194.05 35.91 175.26 13.38 156.47 35.91 163.74 35.91 163.74 64.87 186.9 64.87 186.9 35.91 194.05 35.91"/><polygon class="cls-12" points="215.86 71.24 215.86 42.28 192.12 42.28 192.12 71.24 185.52 71.24 204.31 93.77 223.1 71.24 215.86 71.24"/><path class="cls-5" d="M248.94,295.84a11.08,11.08,0,1,0,14.19,6.65A11.1,11.1,0,0,0,248.94,295.84Z"/><path class="cls-4" d="M250.3,239A29.05,29.05,0,0,0,228,238l-.2.07A29.26,29.26,0,0,0,225.39,292a16.32,16.32,0,0,1,8.35,9l1,2.83,30.16-10.91-1-2.83a16.09,16.09,0,0,1,.6-12.17A29.25,29.25,0,0,0,250.3,239Z"/><path class="cls-1" d="M233.74,301l1.71,4.73a7,7,0,0,0,9,4.2l17-6.15a7,7,0,0,0,4.2-9l-1.71-4.73Z"/><circle class="cls-13" cx="226.25" cy="254.33" r="7.77" transform="translate(-100.06 351.27) rotate(-64.89)"/><circle class="cls-13" cx="227.68" cy="267.99" r="13.33" transform="translate(-76.12 445.09) rotate(-79.89)"/><circle class="cls-6" cx="227.63" cy="267.85" r="5.53" transform="translate(-76.02 444.92) rotate(-79.89)"/><path class="cls-12" d="M124.22,298.64a30.15,30.15,0,0,0,3.93-12.23l.91-.2,5.91-1.28L133.69,279l-1.28-5.91-1.28-5.91-5.91,1.28-.92.2a35.53,35.53,0,0,0-4.33-5.32,26.38,26.38,0,0,0-5.54-4.6l.28-.89,2.19-6.81-4.5-1.45-5.76-1.85-7.26-2.33-2.19,6.81-.28.89c-1.41.24-3.63.47-5.8,1a27.09,27.09,0,0,0-5.61,2.13l-.45-.64-4-4.45-4.43,4.08-4.46,4.07-4.47,4.06,4.07,4.48.63.69a30.17,30.17,0,0,0-3.93,12.23l-.91.2-5.91,1.28L63,288.12,64.24,294l1.28,5.91,5.91-1.28.92-.2c1,1.83,1.53,3.3,2.95,4.88s3.15,3.14,4.16,4.16l-.28.89-1.71,5.33L84.72,316l5.76,1.85,4.5,1.45L96.69,314l.28-.89a26.38,26.38,0,0,0,7.18-.51,32.68,32.68,0,0,0,6.3-1.91l.79.75,4.14,4.5,4.52-4,4.5-4.05,4.49-4.06-4.06-4.48Zm-31.13,1.24a17.13,17.13,0,1,1,21.55-11.07A17.15,17.15,0,0,1,93.09,299.88Z"/><path class="cls-6" d="M88.57,200.07a12.69,12.69,0,0,0-8.79-12l-1.85-.59-.09-1.94A16.59,16.59,0,0,0,45,183.17l-.38,1.91-1.92.31a13.71,13.71,0,0,0,2.17,27.24H76A12.57,12.57,0,0,0,88.57,200.07Z"/><path class="cls-1" d="M35.57,154.32a6.13,6.13,0,0,0-4.63-5.68l-1-.28,0-.92c-.22-4.2-4.06-7.49-8.72-7.49-4.16,0-7.77,2.67-8.57,6.35l-.2.91-1,.15a6.81,6.81,0,0,0-6.07,6.42c0,3.59,3.24,6.5,7.22,6.5H29C32.6,160.28,35.57,157.6,35.57,154.32Z"/><path class="cls-1" d="M92.56,132.45a3.21,3.21,0,0,0-2.42-3l-.51-.15,0-.48A4.38,4.38,0,0,0,85,124.93a4.49,4.49,0,0,0-4.49,3.32l-.1.47-.53.08a3.56,3.56,0,0,0-3.18,3.36,3.61,3.61,0,0,0,3.78,3.4H89.1A3.31,3.31,0,0,0,92.56,132.45Z"/><path class="cls-1" d="M190,198.64a11.08,11.08,0,0,1,3.46.55,8.52,8.52,0,0,1,3,1.68,8.13,8.13,0,0,1,2.08,2.89,10.26,10.26,0,0,1,.78,4.19q0,.34,0,.9a9.69,9.69,0,0,1-.16,1.19,7.45,7.45,0,0,1-.38,1.29,4.37,4.37,0,0,1-.69,1.19,3.3,3.3,0,0,1-1.1.86,3.5,3.5,0,0,1-1.58.33,3.35,3.35,0,0,1-1.14-.17,2.25,2.25,0,0,1-.75-.44,1.84,1.84,0,0,1-.44-.58,2.46,2.46,0,0,1-.19-.58,5.32,5.32,0,0,1-1.9,1.16,6.62,6.62,0,0,1-2.22.38,3.83,3.83,0,0,1-2.82-.95A3.45,3.45,0,0,1,185,210a3.66,3.66,0,0,1,.39-1.77,3.28,3.28,0,0,1,1-1.16,4.26,4.26,0,0,1,1.45-.63,7.14,7.14,0,0,1,1.67-.19,6.25,6.25,0,0,1,1.53.16,5.06,5.06,0,0,1,.95.33,3.19,3.19,0,0,0-.12-.9,1.64,1.64,0,0,0-.41-.71,1.92,1.92,0,0,0-.79-.45,4.21,4.21,0,0,0-1.25-.16,5.65,5.65,0,0,0-1.81.27,3.42,3.42,0,0,0-1.28.73l-.78-2.36a6.31,6.31,0,0,1,2-.91,9.3,9.3,0,0,1,2.31-.28,6,6,0,0,1,2.73.51,3.51,3.51,0,0,1,1.44,1.29,4,4,0,0,1,.55,1.68q.08.9.09,1.7v1.63q0,.53,0,1.07a4.36,4.36,0,0,0,.15,1,1.79,1.79,0,0,0,.35.71.83.83,0,0,0,.67.27,1.06,1.06,0,0,0,.91-.46,3.56,3.56,0,0,0,.51-1.11,6.56,6.56,0,0,0,.23-1.3q0-.66,0-1a8.22,8.22,0,0,0-.54-3,6.81,6.81,0,0,0-1.53-2.37,7,7,0,0,0-2.41-1.56,8.6,8.6,0,0,0-3.19-.56,8.43,8.43,0,0,0-3.15.56,6.56,6.56,0,0,0-3.83,3.88,8.3,8.3,0,0,0-.51,3,8.64,8.64,0,0,0,.47,2.89,6.88,6.88,0,0,0,1.39,2.36,6.54,6.54,0,0,0,2.23,1.6,7.36,7.36,0,0,0,3,.58,7.08,7.08,0,0,0,1.14-.09q.51-.09,1-.21a7.23,7.23,0,0,0,.86-.29l.88-.34.49,1.66a10.3,10.3,0,0,1-2.18.73,10.61,10.61,0,0,1-2.23.24,9.13,9.13,0,0,1-3.43-.65,8.4,8.4,0,0,1-2.81-1.84,8.59,8.59,0,0,1-1.9-2.89,10,10,0,0,1-.69-3.81,9.32,9.32,0,0,1,.78-3.93,8.39,8.39,0,0,1,2.08-2.84,8.7,8.7,0,0,1,3-1.72A11.18,11.18,0,0,1,190,198.64Zm1,12.25a3.14,3.14,0,0,0,.63-.46.93.93,0,0,0,.32-.71v-1a7.66,7.66,0,0,0-1-.3,6,6,0,0,0-1.38-.16,2.14,2.14,0,0,0-1.47.41,1.64,1.64,0,0,0-.45,1.27q0,1.36,1.44,1.36a7.4,7.4,0,0,0,.9-.07A3,3,0,0,0,191,210.89Z"/><polygon class="cls-4" points="311.6 311.34 308.2 314.17 308.61 318.57 304.87 316.22 300.8 317.96 301.89 313.68 298.97 310.35 303.39 310.06 305.65 306.26 307.29 310.37 311.6 311.34"/><polygon class="cls-4" points="256.66 28.18 256.14 32.57 259.45 35.5 255.11 36.35 253.36 40.41 251.21 36.55 246.8 36.13 249.81 32.89 248.84 28.57 252.86 30.43 256.66 28.18"/><polygon class="cls-4" points="40.93 297.46 44.27 300.35 48.55 299.23 46.84 303.31 49.22 307.03 44.82 306.66 42.01 310.08 41 305.77 36.88 304.16 40.67 301.87 40.93 297.46"/><polygon class="cls-4" points="6.83 207.5 8.31 211.67 12.58 212.81 9.08 215.51 9.31 219.92 5.66 217.42 1.53 219.01 2.79 214.77 0 211.33 4.42 211.21 6.83 207.5"/><polygon class="cls-4" points="37.55 63.15 41.06 65.83 45.27 64.45 43.8 68.63 46.41 72.2 41.99 72.1 39.4 75.68 38.13 71.45 33.92 70.09 37.56 67.57 37.55 63.15"/><polygon class="cls-4" points="33.52 86.61 36.12 87.13 38.03 85.28 38.34 87.92 40.69 89.17 38.27 90.28 37.82 92.9 36.02 90.94 33.38 91.32 34.69 89 33.52 86.61"/></g></g></g></svg>