<svg xmlns="http://www.w3.org/2000/svg" viewBox="0 0 16.18 21.58"><defs><style>.cls-1{fill:#fff;}</style></defs><title>Fichier 1</title><g id="Calque_2" data-name="Calque 2"><g id="Calque_1-2" data-name="Calque 1"><path class="cls-1" d="M14.39,1.8H12.51A1.35,1.35,0,0,0,11.24.9H9.88A2.23,2.23,0,0,0,6.3.9H4.95a1.35,1.35,0,0,0-1.27.9H1.8A1.8,1.8,0,0,0,0,3.6V19.78a1.8,1.8,0,0,0,1.8,1.8H14.39a1.8,1.8,0,0,0,1.8-1.8V3.6A1.8,1.8,0,0,0,14.39,1.8ZM4.5,2.25a.45.45,0,0,1,.45-.45h1.6a.45.45,0,0,0,.39-.22,1.33,1.33,0,0,1,2.32,0,.45.45,0,0,0,.39.22h1.6a.45.45,0,0,1,.45.45V2.7a.9.9,0,0,1-.9.9H5.39a.9.9,0,0,1-.9-.9ZM15.29,19.78a.9.9,0,0,1-.9.9H1.8a.9.9,0,0,1-.9-.9V3.6a.9.9,0,0,1,.9-.9H3.6a1.8,1.8,0,0,0,1.8,1.8h5.39a1.8,1.8,0,0,0,1.8-1.8h1.8a.9.9,0,0,1,.9.9Z"/><path class="cls-1" d="M12.14,9.89H4a.45.45,0,1,0,0,.9h8.09a.45.45,0,1,0,0-.9Z"/><path class="cls-1" d="M12.14,11.69H4a.45.45,0,0,0,0,.9h8.09a.45.45,0,1,0,0-.9Z"/><path class="cls-1" d="M12.14,13.49H4a.45.45,0,1,0,0,.9h8.09a.45.45,0,1,0,0-.9Z"/><path class="cls-1" d="M8.54,15.29H4a.45.45,0,1,0,0,.9h4.5a.45.45,0,1,0,0-.9Z"/></g></g></svg>