<svg xmlns="http://www.w3.org/2000/svg" viewBox="0 0 23.67 23.66"><defs><style>.cls-1{fill:#32c5d2;}</style></defs><title>Fichier 26</title><g id="Calque_2" data-name="Calque 2"><g id="Calque_1-2" data-name="Calque 1"><path class="cls-1" d="M4.43,19.07H10.1a.38.38,0,0,0,.37-.38V16.9a2.74,2.74,0,0,0-1.71-2.63l-1.25-.52-.84-.55V13a2.48,2.48,0,0,0,1.25-1.72,1.21,1.21,0,0,0,.68-2V8.09A3.23,3.23,0,0,0,5.38,4.87H5.14A3.23,3.23,0,0,0,1.92,8.09V9.28a1.21,1.21,0,0,0,.69,2A2.48,2.48,0,0,0,3.85,13v.18L3,13.73H3l-1.27.53A2.74,2.74,0,0,0,0,16.9v1.79a.37.37,0,0,0,.37.37H2.83a.37.37,0,0,0,0-.75H2.47v-1.5a.37.37,0,1,0-.75,0v1.5h-1V16.9A2,2,0,0,1,2,15H2l.9-.38,1,3.74a.37.37,0,0,0,.08.74h.41Zm.17-5.69h0v-.12a2.47,2.47,0,0,0,.44,0h.46a2.47,2.47,0,0,0,.44,0v.47l-.68.71L4.6,13.8Zm1.68,2.81.12.06L6.2,17l-.1-.63.08-.21Zm-.82-.27H5.06L5,15.65l.3-.22.31.22Zm-1.24.27.11-.08.1.23-.1.62-.2-.72Zm.65,2.13.27-1.65H5.4l.27,1.65ZM8.51,15A2,2,0,0,1,9.73,16.9v1.42h-1v-1.5a.37.37,0,0,0-.75,0v1.5H6.6l1-3.71.85.35Zm-2.15.35-.13-.09h0l-.42-.31.76-.79.06-.08.26.17ZM8,10.46V9.7a.46.46,0,0,1,0,.76ZM5.14,5.62h.24A2.48,2.48,0,0,1,7.86,8.09v.67H7.68c-.77-.18-1-1.18-1-1.19A.37.37,0,0,0,6,7.34a4.18,4.18,0,0,1-3,1.32H2.67V8.09A2.48,2.48,0,0,1,5.14,5.62ZM2.36,10.08a.46.46,0,0,1,.2-.38v.76A.46.46,0,0,1,2.36,10.08Zm.95.74V9.38A5,5,0,0,0,6.16,8.26a2.16,2.16,0,0,0,1.06,1v1.52a1.73,1.73,0,0,1-1.73,1.73H5A1.73,1.73,0,0,1,3.31,10.82Zm.56,3.24a.37.37,0,0,0,.1.16l.72.7-.55.4-.53-1.09Z"/><path class="cls-1" d="M4.26,3.74a11.08,11.08,0,0,1,14.51-.55h-.6a.37.37,0,1,0,0,.75h1.49A.37.37,0,0,0,20,3.56V2.22a.37.37,0,0,0-.75,0v.43a11.83,11.83,0,0,0-15.54.55.37.37,0,0,0,.51.55Z"/><path class="cls-1" d="M19.1,20.19a11.08,11.08,0,0,1-13.92.51h.62a.37.37,0,1,0,0-.75H4.31a.37.37,0,0,0-.37.37v1.34a.37.37,0,1,0,.75,0v-.41a11.83,11.83,0,0,0,14.91-.5.37.37,0,0,0-.49-.56Z"/><path class="cls-1" d="M22,14.27l-1.25-.52-.84-.55V13a2.48,2.48,0,0,0,1.25-1.72,1.21,1.21,0,0,0,.68-2V8.09a3.23,3.23,0,0,0-3.22-3.22h-.24a3.23,3.23,0,0,0-3.22,3.22V9.28a1.21,1.21,0,0,0,.69,2A2.48,2.48,0,0,0,17.05,13v.18l-.84.56h0l-1.27.53A2.74,2.74,0,0,0,13.2,16.9v1.79a.37.37,0,0,0,.37.37H16a.37.37,0,1,0,0-.75h-.36v-1.5a.37.37,0,0,0-.75,0v1.5h-1V16.9A2,2,0,0,1,15.16,15h0l.9-.38,1,3.74a.37.37,0,0,0,.08.74H23.3a.38.38,0,0,0,.37-.38V16.9A2.74,2.74,0,0,0,22,14.27Zm-4.16-.89h0v-.12a2.47,2.47,0,0,0,.44,0h.46a2.47,2.47,0,0,0,.44,0v.47l-.68.71-.65-.63v-.42Zm1.68,2.81.12.06-.2.71-.1-.63.08-.21Zm-2.06,0,.11-.08.1.23-.1.62-.2-.72Zm.85-.27-.11-.27.3-.22.31.22-.1.26h-.39Zm1.3-.59-.13-.09h0L19,14.92l.76-.79.06-.08.26.17Zm1.61-4.86V9.7a.46.46,0,0,1,0,.76ZM18.34,5.62h.24a2.48,2.48,0,0,1,2.48,2.48v.67h-.18c-.77-.18-1-1.18-1-1.19a.37.37,0,0,0-.67-.14,4.18,4.18,0,0,1-3,1.32h-.27V8.09A2.48,2.48,0,0,1,18.34,5.62Zm-2.78,4.46a.46.46,0,0,1,.2-.38v.76A.46.46,0,0,1,15.56,10.08Zm.95.74V9.38a5,5,0,0,0,2.85-1.12,2.16,2.16,0,0,0,1.06,1v1.52a1.73,1.73,0,0,1-1.73,1.73h-.46A1.73,1.73,0,0,1,16.51,10.82Zm.56,3.24a.37.37,0,0,0,.1.16l.72.7-.55.4-.53-1.09Zm1,4.26.27-1.65h.26l.27,1.65Zm4.86,0H22v-1.5a.37.37,0,0,0-.75,0v1.5H19.8l1-3.71.85.35h0a2,2,0,0,1,1.22,1.93v1.42Z"/></g></g></svg>