<?xml version="1.0" encoding="utf-8"?>
<!-- Generator: Adobe Illustrator 21.0.0, SVG Export Plug-In . SVG Version: 6.00 Build 0)  -->
<svg version="1.1" id="Calque_1" xmlns="http://www.w3.org/2000/svg" xmlns:xlink="http://www.w3.org/1999/xlink" x="0px" y="0px"
	 viewBox="0 0 15 15" style="enable-background:new 0 0 15 15;" xml:space="preserve">
<style type="text/css">
	.st0{opacity:0.36;}
	.st1{fill:#D3D3D3;}
</style>
<title>Fichier 14</title>
<g id="Calque_2_1_" class="st0">
	<g id="Calque_1-2_1_">
		<path class="st1" d="M2.9,12h3.6c0.1,0,0.2-0.1,0.2-0.2v-1.1C6.7,10,6.2,9.3,5.6,9L4.8,8.7L4.3,8.4V8.2C4.7,8,5,7.6,5,7.2
			c0.4-0.1,0.7-0.5,0.6-0.9c0-0.1-0.1-0.3-0.2-0.4V5.2c0-1.1-0.9-2-2-2H3.3c-1.1,0-2,0.9-2,2v0.7C1,6.2,1,6.7,1.3,7
			c0.1,0.1,0.2,0.2,0.4,0.2C1.8,7.6,2.1,8,2.5,8.2v0.1L2,8.7l0,0L1.2,9C0.5,9.3,0,10,0.1,10.7v1.1c0,0.1,0.1,0.2,0.2,0.2
			c0,0,0,0,0,0h1.5c0.1,0,0.2-0.1,0.2-0.2c0-0.1-0.1-0.2-0.2-0.2H1.6v-0.9c0-0.1-0.1-0.2-0.2-0.2s-0.2,0.1-0.2,0.2l0,0v0.9H0.5v-0.9
			c0-0.5,0.3-1,0.8-1.2l0,0l0.6-0.2l0.6,2.3c-0.1,0-0.2,0.1-0.2,0.3c0,0.1,0.1,0.2,0.3,0.2L2.9,12L2.9,12z M3,8.5L3,8.5L3,8.5
			c0.1-0.1,0.2-0.1,0.3-0.1h0.3c0.1,0,0.2,0,0.3,0v0.3L3.4,9.1L3,8.7V8.5z M4,10.2L4,10.2L4,10.7l-0.1-0.4L4,10.2L4,10.2z M3.5,10.1
			H3.2l0-0.2l0.2-0.1l0.2,0.1L3.5,10.1z M2.7,10.2L2.7,10.2l0.1,0.1l-0.1,0.4L2.7,10.2L2.7,10.2z M3.1,11.6l0.2-1h0.2l0.2,1H3.1z
			 M5.4,9.5c0.5,0.2,0.8,0.7,0.8,1.2v0.9H5.6v-0.9c0-0.1-0.1-0.2-0.2-0.2s-0.2,0.1-0.2,0.2v0.9H4.2l0.6-2.3L5.4,9.5L5.4,9.5z
			 M4.1,9.7L4.1,9.7L4.1,9.7L3.7,9.5L4.2,9l0-0.1L4.4,9L4.1,9.7z M5.1,6.6V6.2C5.2,6.3,5.3,6.4,5.1,6.6C5.1,6.6,5.1,6.6,5.1,6.6z
			 M3.3,3.6h0.2C4.3,3.6,5,4.3,5,5.2v0.4H4.9C4.4,5.5,4.3,4.8,4.3,4.8c0-0.1-0.1-0.2-0.2-0.3c-0.1,0-0.2,0-0.2,0.1
			C3.3,5.2,2.7,5.5,2,5.5H1.7V5.2C1.8,4.3,2.4,3.6,3.3,3.6z M1.6,6.4c0-0.1,0-0.2,0.1-0.2v0.5C1.6,6.6,1.6,6.5,1.6,6.4z M2.1,6.9V6
			c0.7,0,1.3-0.3,1.8-0.7c0.1,0.3,0.4,0.5,0.7,0.6v1c0,0.6-0.5,1.1-1.1,1.1H3.2C2.6,7.9,2.2,7.4,2.1,6.9z M2.5,8.9
			c0,0,0,0.1,0.1,0.1L3,9.4L2.7,9.7L2.3,9L2.5,8.9z"/>
		<path class="st1" d="M2.7,2.4c2.5-2.4,6.4-2.5,9.1-0.3h-0.4c-0.1,0-0.2,0.1-0.2,0.2c0,0.1,0.1,0.2,0.2,0.2h0.9
			c0.1,0,0.2-0.1,0.2-0.2V1.5c0-0.1-0.1-0.2-0.2-0.2s-0.2,0.1-0.2,0.2v0.3c-2.9-2.3-7-2.2-9.8,0.3c-0.1,0.1-0.1,0.2,0,0.3
			C2.5,2.5,2.6,2.5,2.7,2.4L2.7,2.4L2.7,2.4z"/>
		<path class="st1" d="M12.1,12.7c-2.5,2.2-6.1,2.3-8.7,0.3h0.4c0.1,0,0.2-0.1,0.2-0.2s-0.1-0.2-0.2-0.2H2.8c-0.1,0-0.2,0.1-0.2,0.2
			l0,0v0.8c0,0.1,0.1,0.2,0.2,0.2S3,13.8,3,13.7v-0.3c2.8,2.1,6.7,2,9.4-0.3c0.1-0.1,0.1-0.2,0-0.3C12.3,12.7,12.2,12.7,12.1,12.7
			L12.1,12.7z"/>
		<path class="st1" d="M13.9,9l-0.8-0.3l-0.5-0.3V8.2C13,8,13.3,7.6,13.4,7.2C13.8,7.1,14,6.7,14,6.3c0-0.1-0.1-0.3-0.2-0.4V5.2
			c0-1.1-0.9-2-2-2h-0.2c-1.1,0-2,0.9-2,2v0.7C9.3,6.2,9.3,6.7,9.6,7C9.8,7.1,9.9,7.1,10,7.2c0.1,0.5,0.4,0.8,0.8,1.1v0.1l-0.5,0.4
			l0,0L9.4,9C8.8,9.3,8.3,10,8.4,10.7v1.1c0,0.1,0.1,0.2,0.2,0.2c0,0,0,0,0,0h1.5c0.1,0,0.2-0.1,0.2-0.2c0-0.1-0.1-0.2-0.2-0.2H9.9
			v-0.9c0-0.1-0.1-0.2-0.2-0.2s-0.2,0.1-0.2,0.2l0,0v0.9H8.8v-0.9c0-0.5,0.3-1,0.8-1.2l0,0l0.6-0.2l0.6,2.3c-0.1,0-0.2,0.1-0.2,0.3
			c0,0.1,0.1,0.2,0.3,0.2h3.9c0.1,0,0.2-0.1,0.2-0.2v-1.1C15,10,14.5,9.3,13.9,9z M11.3,8.5L11.3,8.5L11.3,8.5
			c0.1-0.1,0.2-0.1,0.3-0.1h0.3c0.1,0,0.2,0,0.3,0v0.3l-0.4,0.4l-0.4-0.4L11.3,8.5L11.3,8.5z M12.3,10.2L12.3,10.2l-0.1,0.5
			l-0.1-0.4L12.3,10.2L12.3,10.2z M11,10.2L11,10.2l0.1,0.1l-0.1,0.4L11,10.2L11,10.2z M11.6,10.1l-0.1-0.2l0.2-0.1l0.2,0.1
			l-0.1,0.2L11.6,10.1L11.6,10.1z M12.4,9.7L12.4,9.7L12.4,9.7L12,9.4l0.5-0.5l0-0.1L12.7,9L12.4,9.7z M13.4,6.6V6.2
			C13.5,6.3,13.6,6.4,13.4,6.6C13.4,6.6,13.4,6.6,13.4,6.6L13.4,6.6z M11.6,3.6h0.2c0.9,0,1.6,0.7,1.6,1.6v0.4h-0.1
			c-0.5-0.1-0.6-0.7-0.6-0.7c0-0.1-0.1-0.2-0.3-0.2c-0.1,0-0.1,0-0.1,0.1c-0.5,0.5-1.2,0.8-1.9,0.8h-0.2V5.2
			C10.1,4.3,10.7,3.6,11.6,3.6z M9.8,6.4c0-0.1,0-0.2,0.1-0.2v0.5C9.9,6.6,9.8,6.5,9.8,6.4z M10.4,6.9V6c0.7,0,1.3-0.3,1.8-0.7
			c0.1,0.3,0.4,0.5,0.7,0.6v1c0,0.6-0.5,1.1-1.1,1.1h-0.3C10.9,7.9,10.4,7.5,10.4,6.9z M10.8,8.9c0,0,0,0.1,0.1,0.1l0.5,0.4L11,9.7
			L10.6,9L10.8,8.9z M11.4,11.6l0.2-1h0.2l0.2,1H11.4z M14.5,11.6h-0.6v-0.9c0-0.1-0.1-0.2-0.2-0.2c-0.1,0-0.2,0.1-0.2,0.2v0.9h-0.9
			l0.6-2.3l0.5,0.2l0,0c0.5,0.2,0.8,0.7,0.8,1.2L14.5,11.6L14.5,11.6z"/>
	</g>
</g>
</svg>
