<?xml version="1.0" encoding="utf-8"?>
<!-- Generator: Adobe Illustrator 21.0.0, SVG Export Plug-In . SVG Version: 6.00 Build 0)  -->
<svg version="1.1" id="Calque_1" xmlns="http://www.w3.org/2000/svg" xmlns:xlink="http://www.w3.org/1999/xlink" x="0px" y="0px"
	 viewBox="0 0 23.7 23.7" style="enable-background:new 0 0 23.7 23.7;" xml:space="preserve">
<style type="text/css">
	.st0{fill:#FFFFFF;}
</style>
<title>Fichier 26</title>
<g id="Calque_2">
	<g id="Calque_1-2">
		<path class="st0" d="M4.4,19.1h5.7c0.2,0,0.4-0.2,0.4-0.4v-1.8c0-1.1-0.6-2.2-1.7-2.6l-1.2-0.5l-0.8-0.6V13c0.7-0.4,1.1-1,1.2-1.7
			c0.7-0.1,1.1-0.8,1-1.4c0-0.2-0.1-0.4-0.3-0.6V8.1c0-1.8-1.4-3.2-3.2-3.2H5.1c-1.8,0-3.2,1.4-3.2,3.2v1.2C1.5,9.8,1.5,10.5,2,11
			c0.2,0.2,0.4,0.3,0.6,0.3C2.7,12,3.2,12.6,3.8,13v0.2L3,13.7l0,0l-1.3,0.5C0.7,14.7,0,15.7,0,16.9v1.8c0,0.2,0.2,0.4,0.4,0.4
			c0,0,0,0,0,0h2.5c0.2,0,0.4-0.2,0.4-0.4S3,18.3,2.8,18.3H2.5v-1.5c0-0.2-0.2-0.4-0.4-0.4s-0.4,0.2-0.4,0.4l0,0v1.5h-1v-1.4
			c0-0.8,0.5-1.6,1.3-1.9l0,0l0.9-0.4l1,3.7c-0.2,0-0.4,0.2-0.3,0.4s0.2,0.4,0.4,0.3L4.4,19.1L4.4,19.1z M4.6,13.4L4.6,13.4v-0.1
			c0.1,0,0.3,0,0.4,0h0.5c0.1,0,0.3,0,0.4,0v0.5l-0.7,0.7l-0.7-0.6V13.4z M6.3,16.2l0.1,0.1L6.2,17l-0.1-0.6L6.3,16.2L6.3,16.2z
			 M5.5,15.9H5.1L5,15.6l0.3-0.2l0.3,0.2L5.5,15.9z M4.2,16.2l0.1-0.1l0.1,0.2L4.3,17L4.2,16.2L4.2,16.2z M4.9,18.3l0.3-1.6h0.3
			l0.3,1.6H4.9z M8.5,15c0.8,0.3,1.2,1.1,1.2,1.9v1.4h-1v-1.5c0-0.2-0.2-0.4-0.4-0.4S8,16.6,8,16.8v1.5H6.6l1-3.7L8.5,15L8.5,15z
			 M6.4,15.4l-0.1-0.1l0,0l-0.4-0.3l0.8-0.8l0.1-0.1l0.3,0.2L6.4,15.4z M8,10.5V9.7c0.2,0.1,0.3,0.4,0.1,0.6C8.1,10.4,8,10.4,8,10.5
			z M5.1,5.6h0.2c1.4,0,2.5,1.1,2.5,2.5v0.7H7.7c-0.8-0.2-1-1.2-1-1.2c0-0.2-0.1-0.4-0.3-0.4C6.2,7.2,6.1,7.2,6,7.3
			C5.2,8.2,4.1,8.6,3,8.7H2.7V8.1C2.7,6.7,3.8,5.6,5.1,5.6z M2.4,10.1c0-0.2,0.1-0.3,0.2-0.4v0.8C2.4,10.4,2.4,10.2,2.4,10.1z
			 M3.3,10.8V9.4c1-0.1,2-0.5,2.8-1.1c0.2,0.4,0.6,0.8,1.1,1v1.5c0,1-0.8,1.7-1.7,1.7H5C4.1,12.5,3.3,11.7,3.3,10.8z M3.9,14.1
			c0,0.1,0.1,0.1,0.1,0.2l0.7,0.7l-0.6,0.4l-0.5-1.1L3.9,14.1z"/>
		<path class="st0" d="M4.3,3.7c4-3.8,10.2-4,14.5-0.5h-0.6c-0.2,0-0.4,0.2-0.4,0.4s0.2,0.4,0.4,0.4h1.5c0.2,0,0.3-0.2,0.3-0.4V2.2
			c0-0.2-0.2-0.4-0.4-0.4S19.2,2,19.2,2.2v0.4C14.7-1.1,8-0.8,3.7,3.2c-0.2,0.1-0.2,0.4,0,0.5C3.8,3.9,4.1,3.9,4.3,3.7L4.3,3.7
			L4.3,3.7z"/>
		<path class="st0" d="M19.1,20.2c-3.9,3.4-9.7,3.6-13.9,0.5h0.6c0.2,0,0.4-0.2,0.4-0.4S6,20,5.8,20H4.3c-0.2,0-0.4,0.2-0.4,0.4l0,0
			v1.3c0,0.2,0.2,0.4,0.4,0.4s0.4-0.2,0.4-0.4v-0.4c4.5,3.4,10.7,3.2,14.9-0.5c0.2-0.1,0.2-0.4,0-0.5S19.3,20.1,19.1,20.2L19.1,20.2
			z"/>
		<path class="st0" d="M22,14.3l-1.2-0.5l-0.8-0.6V13c0.7-0.4,1.1-1,1.2-1.7c0.7-0.1,1.1-0.8,1-1.4c0-0.2-0.1-0.4-0.3-0.6V8.1
			c0-1.8-1.4-3.2-3.2-3.2h-0.2c-1.8,0-3.2,1.4-3.2,3.2v1.2c-0.4,0.5-0.4,1.3,0.1,1.7c0.2,0.2,0.4,0.3,0.6,0.3C16,12,16.4,12.6,17,13
			v0.2l-0.8,0.6l0,0l-1.3,0.5c-1.1,0.4-1.8,1.5-1.7,2.6v1.8c0,0.2,0.2,0.4,0.4,0.4c0,0,0,0,0,0H16c0.2,0,0.4-0.2,0.4-0.4
			s-0.2-0.4-0.4-0.4h-0.4v-1.5c0-0.2-0.2-0.4-0.4-0.4s-0.4,0.2-0.4,0.4l0,0v1.5h-1v-1.4c0-0.8,0.5-1.6,1.3-1.9l0,0l0.9-0.4l1,3.7
			c-0.2,0-0.4,0.2-0.3,0.4s0.2,0.4,0.4,0.3h6.2c0.2,0,0.4-0.2,0.4-0.4v-1.8C23.7,15.8,23,14.7,22,14.3z M17.8,13.4L17.8,13.4v-0.1
			c0.1,0,0.3,0,0.4,0h0.5c0.1,0,0.3,0,0.4,0v0.5l-0.7,0.7l-0.6-0.6L17.8,13.4L17.8,13.4z M19.5,16.2l0.1,0.1L19.4,17l-0.1-0.6
			l0.1-0.2L19.5,16.2z M17.5,16.2l0.1-0.1l0.1,0.2L17.6,17L17.5,16.2L17.5,16.2z M18.3,15.9l-0.1-0.3l0.3-0.2l0.3,0.2l-0.1,0.3
			L18.3,15.9L18.3,15.9z M19.6,15.3l-0.1-0.1l0,0L19,14.9l0.8-0.8l0.1-0.1l0.3,0.2L19.6,15.3z M21.2,10.5V9.7
			c0.2,0.1,0.3,0.4,0.1,0.6C21.3,10.4,21.3,10.4,21.2,10.5L21.2,10.5z M18.3,5.6h0.2c1.4,0,2.5,1.1,2.5,2.5v0.7h-0.2
			c-0.8-0.2-1-1.2-1-1.2c0-0.2-0.2-0.3-0.4-0.3c-0.1,0-0.2,0.1-0.2,0.2c-0.8,0.8-1.9,1.3-3,1.3h-0.3V8.1C15.9,6.8,17,5.7,18.3,5.6z
			 M15.6,10.1c0-0.2,0.1-0.3,0.2-0.4v0.8C15.6,10.4,15.6,10.2,15.6,10.1z M16.5,10.8V9.4c1-0.1,2-0.5,2.9-1.1c0.2,0.4,0.6,0.8,1.1,1
			v1.5c0,1-0.8,1.7-1.7,1.7h-0.5C17.3,12.5,16.5,11.8,16.5,10.8z M17.1,14.1c0,0.1,0.1,0.1,0.1,0.2l0.7,0.7l-0.5,0.4l-0.5-1.1
			L17.1,14.1z M18.1,18.3l0.3-1.6h0.3l0.3,1.6H18.1z M22.9,18.3H22v-1.5c0-0.2-0.2-0.4-0.4-0.4s-0.4,0.2-0.4,0.4v1.5h-1.5l1-3.7
			l0.9,0.4l0,0c0.8,0.3,1.3,1.1,1.2,1.9L22.9,18.3L22.9,18.3z"/>
	</g>
</g>
</svg>
