<svg xmlns="http://www.w3.org/2000/svg" viewBox="0 0 39 39"><defs><style>.cls-1{fill:#32c5d2;}</style></defs><title>Fichier 3</title><g id="Calque_2" data-name="Calque 2"><g id="Calque_1-2" data-name="Calque 1"><path class="cls-1" d="M23.25,11v-1H21.16a1.69,1.69,0,0,0-3.32,0H15.75v1H11.64v19.5H27.36V11Zm3.47,18.86H12.28V11.59h3.47v.71h.64V10.57h2.06v-.32a1,1,0,1,1,2.1,0v.32h2.06V12.3h.64v-.71h3.47Zm0,0"/><rect class="cls-1" x="19.16" y="9.92" width="0.69" height="0.64"/><path class="cls-1" d="M13,29.08H26V12.32H13ZM13.65,13h11.7V28.43H13.65Zm0,0"/><rect class="cls-1" x="18.47" y="14.38" width="5.49" height="0.64"/><rect class="cls-1" x="15.04" y="14.38" width="2.74" height="0.64"/><rect class="cls-1" x="21.56" y="16.09" width="2.4" height="0.64"/><rect class="cls-1" x="15.04" y="16.09" width="5.83" height="0.64"/><rect class="cls-1" x="17.1" y="17.81" width="6.86" height="0.64"/><rect class="cls-1" x="15.04" y="17.81" width="1.37" height="0.64"/><rect class="cls-1" x="20.19" y="19.52" width="3.77" height="0.64"/><rect class="cls-1" x="15.04" y="19.52" width="4.46" height="0.64"/><rect class="cls-1" x="22.24" y="21.24" width="1.71" height="0.64"/><rect class="cls-1" x="15.04" y="21.24" width="6.51" height="0.64"/><rect class="cls-1" x="18.13" y="22.95" width="5.83" height="0.64"/><rect class="cls-1" x="15.04" y="22.95" width="2.4" height="0.64"/><rect class="cls-1" x="20.87" y="24.66" width="3.09" height="0.64"/><rect class="cls-1" x="15.04" y="24.66" width="5.14" height="0.64"/><rect class="cls-1" x="17.1" y="26.38" width="6.86" height="0.64"/><rect class="cls-1" x="15.04" y="26.38" width="1.37" height="0.64"/><path class="cls-1" d="M19.5,39A19.5,19.5,0,1,1,39,19.5,19.52,19.52,0,0,1,19.5,39Zm0-37.57A18.07,18.07,0,1,0,37.57,19.5,18.09,18.09,0,0,0,19.5,1.43Z"/></g></g></svg>