<svg xmlns="http://www.w3.org/2000/svg" viewBox="0 0 23 23"><defs><style>.cls-1{fill:#32c5d2;}</style></defs><title>Fichier 25</title><g id="Calque_2" data-name="Calque 2"><g id="Calque_1-2" data-name="Calque 1"><path class="cls-1" d="M23,11.5a11.51,11.51,0,0,0-1.31-5.33.52.52,0,0,0,0-.59,11.87,11.87,0,0,0-1.52-2.07l.25-.25a.52.52,0,0,0-.74-.74l-.25.25a11.84,11.84,0,0,0-2.07-1.52.52.52,0,0,0-.59,0,11.52,11.52,0,0,0-10.65,0,.52.52,0,0,0-.59,0A11.87,11.87,0,0,0,3.52,2.78l-.25-.25a.52.52,0,0,0-.74.74l.25.25A11.84,11.84,0,0,0,1.26,5.59a.52.52,0,0,0,0,.59,11.51,11.51,0,0,0,0,10.65.52.52,0,0,0,0,.59,11.87,11.87,0,0,0,1.52,2.07l-.25.25a.52.52,0,1,0,.74.74l.25-.25a11.85,11.85,0,0,0,2.07,1.52.52.52,0,0,0,.26.07.53.53,0,0,0,.33-.11,11.51,11.51,0,0,0,10.65,0,.51.51,0,0,0,.19.1l.13,0a.52.52,0,0,0,.26-.07,11.87,11.87,0,0,0,2.07-1.52l.25.25a.52.52,0,0,0,.74-.74l-.25-.25a11.85,11.85,0,0,0,1.52-2.07.52.52,0,0,0,0-.59A11.51,11.51,0,0,0,23,11.5Zm-2.19,4.77-3.09-1.79a6.89,6.89,0,0,0,0-6l3.09-1.79a10.47,10.47,0,0,1,0,9.55ZM11.5,17.35a5.85,5.85,0,1,1,5.85-5.85,5.86,5.86,0,0,1-5.85,5.85Zm5.69-9.74a7,7,0,0,0-1.8-1.8l1.95-3.38a10.84,10.84,0,0,1,3.23,3.23Zm-.92-5.42L14.49,5.29a6.89,6.89,0,0,0-6,0L6.73,2.19a10.47,10.47,0,0,1,9.55,0ZM5.67,2.43,7.61,5.81a7,7,0,0,0-1.8,1.8L2.43,5.66A10.84,10.84,0,0,1,5.67,2.43ZM2.19,6.73,5.29,8.51a6.89,6.89,0,0,0,0,6L2.19,16.27a10.47,10.47,0,0,1,0-9.55Zm3.62,8.66a7,7,0,0,0,1.8,1.8L5.66,20.57a10.84,10.84,0,0,1-3.23-3.23Zm.92,5.42,1.79-3.09a6.89,6.89,0,0,0,6,0l1.79,3.09a10.47,10.47,0,0,1-9.55,0Zm10.61-.24-1.95-3.37a7,7,0,0,0,1.8-1.8l3.38,1.95a10.85,10.85,0,0,1-3.23,3.23Zm0,0"/></g></g></svg>