<svg xmlns="http://www.w3.org/2000/svg" viewBox="0 0 27 27"><defs><style>.cls-1{fill:#8e8e8e;opacity:0.4;}</style></defs><title>Fichier 11</title><g id="Calque_2" data-name="Calque 2"><g id="Calque_1-2" data-name="Calque 1"><path class="cls-1" d="M24.93,0H2.07A2.07,2.07,0,0,0,0,2.07V24.93A2.07,2.07,0,0,0,2.07,27H24.93A2.07,2.07,0,0,0,27,24.93V2.07A2.07,2.07,0,0,0,24.93,0ZM8.15,22h-4V9.14h4Zm-2-14.46a2,2,0,1,1,.05-4,2,2,0,1,1-.05,4ZM22.77,22h-4V14.88c0-1.66-.58-2.79-2-2.79a2.2,2.2,0,0,0-2.05,1.5,2.83,2.83,0,0,0-.13,1V22h-4V13.25c0-1.61-.05-3-.11-4.11h3.48l.18,1.79h.08a4.63,4.63,0,0,1,4-2.08c2.63,0,4.61,1.76,4.61,5.56Z"/></g></g></svg>