<svg xmlns="http://www.w3.org/2000/svg" viewBox="0 0 25.51 24.93"><defs><style>.cls-1{fill:#32c5d2;}</style></defs><title>Fichier 1</title><g id="Calque_2" data-name="Calque 2"><g id="Calque_1-2" data-name="Calque 1"><path class="cls-1" d="M24.43,4.3,21.17,1.07a3.75,3.75,0,0,0-5.23,0L12.31,4.59a3.59,3.59,0,0,0,0,5.14l2.07-2a1.87,1.87,0,0,1,.56-1.86l2.3-2.25a1.88,1.88,0,0,1,2.62,0l2,1.94a1.8,1.8,0,0,1,0,2.57L19.5,10.4a2.13,2.13,0,0,1-1.91.57l-2,2a3.75,3.75,0,0,0,5.23,0l3.62-3.53a3.58,3.58,0,0,0,0-5.14Zm0,0M11.18,17.22a2.09,2.09,0,0,1-.6,1.91l-2.15,2.1a1.91,1.91,0,0,1-2.66,0l-2-2a1.83,1.83,0,0,1,0-2.62l2.15-2.1A2,2,0,0,1,7.86,14l2.08-2.06a3.83,3.83,0,0,0-5.34,0L1.11,15.31a3.66,3.66,0,0,0,0,5.24l3.32,3.29a3.83,3.83,0,0,0,5.34,0l3.49-3.41a3.66,3.66,0,0,0,0-5.24Zm0,0-2.27-.94a1.27,1.27,0,0,0,1.79,0l6-5.93a1.26,1.26,0,0,0-1.78-1.79l-6,5.93a1.26,1.26,0,0,0,0,1.78Zm0,0"/></g></g></svg>