<?xml version="1.0" encoding="utf-8"?>
<!-- Generator: Adobe Illustrator 21.0.0, SVG Export Plug-In . SVG Version: 6.00 Build 0)  -->
<svg version="1.1" id="Calque_1" xmlns="http://www.w3.org/2000/svg" xmlns:xlink="http://www.w3.org/1999/xlink" x="0px" y="0px"
	 viewBox="0 0 184.1 131.2" style="enable-background:new 0 0 184.1 131.2;" xml:space="preserve">
<style type="text/css">
	.st0{opacity:0.4;enable-background:new    ;}
	.st1{fill:#32C5D2;}
</style>
<title>Fichier 1</title>
<g id="Calque_2" class="st0">
	<g id="Calque_1-2">
		<path class="st1" d="M184,13.2c0-0.2,0.1-0.4,0.1-0.6l-56.2,54.1l56.1,52.4c0-0.4-0.1-0.8-0.1-1.1V13.2z"/>
		<path class="st1" d="M119.4,75.1L96.4,97.1c-2.3,2.2-5.9,2.2-8.2,0.1L65.3,75.9L8.8,130.3c1.4,0.5,2.9,0.8,4.4,0.9h158.1
			c2.2,0,4.4-0.6,6.3-1.7L119.4,75.1z"/>
		<path class="st1" d="M92.2,84.5L178,1.9c-2-1.2-4.3-1.9-6.7-1.9H13.2c-3,0-6,1.1-8.3,3.1L92.2,84.5z"/>
		<path class="st1" d="M0,15.2V118c0,1.2,0.2,2.3,0.6,3.4l55.8-53.7L0,15.2z"/>
	</g>
</g>
</svg>
