<svg xmlns="http://www.w3.org/2000/svg" viewBox="0 0 1088.07 213.06"><defs><style>.cls-1{fill:#fefefe;}.cls-2{fill:#d0d62d;}.cls-3{fill:#f6a533;}.cls-4{fill:#da581f;}.cls-5{fill:#da5820;}.cls-6{fill:#dd3d29;}.cls-7{fill:#fefdfd;}.cls-8{fill:#d63130;}.cls-9{fill:#b3c869;}.cls-10{fill:#f0874c;}.cls-11{fill:#cb2c2c;}.cls-12{fill:#f5ca5c;}.cls-13{fill:#eb6551;}</style></defs><title>Fichier 1</title><g id="Calque_2" data-name="Calque 2"><g id="Calque_1-2" data-name="Calque 1"><path class="cls-1" d="M0,106.34Q0,53.94,0,1.55C0,.25.26,0,1.55,0q542.49.05,1085,0c1.29,0,1.55.25,1.55,1.55q-.06,104.88,0,209.77c0,1.42-.32,1.74-1.74,1.74q-490-.05-980,0a.62.62,0,0,1,0-.36c.06,0,.14,0,.18-.06l35.42-35.5a4.56,4.56,0,0,0,.6-.43q16.87-16.86,33.72-33.73c.28-.28.77-.48.66-1h0c.55.1.77-.35,1.07-.65q16.81-16.75,33.63-33.48c1-1,.73-1.51-.13-2.36Q197.5,91.55,183.61,77.63c-2-2-4.13-4.06-6.2-6.08L142.26,36.36l-.44-.41a5.77,5.77,0,0,0-.46-.59L107.22,1.22a7.7,7.7,0,0,0-.88-.66c-.54,0-.73.44-1,.73Q88.4,18.19,71.5,35.11a11,11,0,0,0-.71.87,4.67,4.67,0,0,0-.6.44Q53.28,53.31,36.36,70.19c-1,1-.59,1.44.17,2.2Q52.78,88.59,69,104.84a5,5,0,0,1,1.52,1.89,9,9,0,0,1-.59.72L36.6,140.79c-.3.3-.55.71-1,.75q0-33.65,0-67.31c0-.57,0-1.13,0-1.7,0-.93-.45-.93-1-.4-.37.34-.73.7-1.08,1.06L1.59,105C1.11,105.48.56,105.89,0,106.34Zm303-21.75.43,0c.35,1.19.71,2.37,1,3.56q11.18,40,22.33,79.95a1.74,1.74,0,0,0,2,1.56c4.22-.07,8.45-.16,12.67,0,1.93.08,2.54-.67,3-2.35q11.38-40.89,22.9-81.75c.15-.53,0-1.31.81-1.59.38,1,0,1.88,0,2.79-.61,14.85-1.43,29.69-1.82,44.54-.32,12.28-.1,24.58-.2,36.87,0,1.45.68,1.45,1.72,1.45,7.12,0,14.25-.06,21.37,0,1.54,0,1.71-.56,1.71-1.86q0-61.37,0-122.74c0-1.37-.19-2-1.81-2-9.64.09-19.29.06-28.93,0-1.22,0-1.73.33-2,1.55q-11,44.72-22,89.41c-.15.59,0,1.39-.91,1.82-1.7-6.93-3.37-13.77-5-20.61Q321.75,80.15,313.22,45c-.35-1.46-.88-2-2.48-2-9.52.09-19,.07-28.56,0-1.32,0-1.69.37-1.69,1.69q0,61.56,0,123.11c0,1.26.26,1.75,1.65,1.73q10.78-.1,21.56,0c1.25,0,1.58-.35,1.59-1.59.11-20.6,0-41.2-1.23-61.78C303.64,99,303.39,91.8,303.07,84.59Zm270.48,39-.42.11c-.34-.65-.7-1.28-1-1.94q-18.4-38.47-36.77-77a2.49,2.49,0,0,0-2.67-1.71c-7.06.08-14.12.07-21.18,0-1.39,0-1.92.23-1.92,1.81q.07,61.47,0,122.93c0,1.61.57,1.8,1.93,1.79,6.93-.06,13.87-.1,20.8,0,1.85,0,2.26-.47,2.26-2.28q-.1-38.11,0-76.22a4,4,0,0,1,.2-2.11c.54.2.61.61.76.93l10.42,21.79q13.42,28.09,26.82,56.2a2.51,2.51,0,0,0,2.7,1.68q10.5-.12,21,0c1.36,0,1.81-.27,1.81-1.74q-.07-61.56,0-123.12c0-1.33-.35-1.69-1.68-1.68-7,.07-14,.09-21,0-1.68,0-2.05.42-2,2.07q.09,38.2,0,76.41ZM716.92,106.5h-.06c0,6.43,0,12.86,0,19.29a56.31,56.31,0,0,0,1.61,13.66c3.21,13.08,10.59,22.83,23.05,28.35,7.48,3.32,15.43,4.09,23.49,3.52,14-1,25.32-6.7,33-18.74,4.95-7.76,6.89-16.46,7-25.53.18-12.35.08-24.71.1-37.07a74.24,74.24,0,0,0-.81-12.05c-2.05-12.67-7.8-23.06-18.8-30.1-9.09-5.81-19.21-7.2-29.74-6.36-8.54.68-16.37,3.35-23.1,8.83C722,59,717.64,70.71,717,84,716.62,91.48,716.92,99,716.92,106.5Zm-77.17-3.2c.22-5.69-.58-14.52.38-23.32.5-4.57,1.77-8.91,4.72-12.55,4.95-6.09,11.6-7.06,18.81-5.93,6.77,1.06,10.86,5.12,12.52,11.73a28,28,0,0,1,1,6.9c0,1.24.4,1.61,1.64,1.6q10.21-.08,20.42,0c1.17,0,1.52-.36,1.48-1.53a55,55,0,0,0-1.21-10.12c-3.13-14.12-11.38-23.42-25.61-27a59.51,59.51,0,0,0-25.11-1c-14.09,2.5-24.33,10.15-30,23.42-3.07,7.12-3.84,14.7-3.88,22.36q-.08,18.53,0,37.07a67.52,67.52,0,0,0,1.07,12.59c3.13,16.17,12.44,26.92,28.2,31.84,7.82,2.44,15.88,2.58,24,1.66,13.51-1.53,24.19-8,32.32-18.81a4.12,4.12,0,0,0,.86-2.62q0-22.13,0-44.25c0-1.34-.4-1.67-1.7-1.66q-19.1.07-38.2,0c-1.16,0-1.64.2-1.61,1.52q.13,7.18,0,14.37c0,1.39.45,1.65,1.72,1.63,4.47-.07,9,0,13.43-.06,1.26,0,1.57.37,1.56,1.6-.06,6.68,0,13.36,0,20a3,3,0,0,1-.44,1.79,13.9,13.9,0,0,1-7.86,6.13,30.54,30.54,0,0,1-9.17,1c-8.76-.21-15-4.76-17.55-12.9a34.52,34.52,0,0,1-1.66-10.21C639.7,121.17,639.75,113.8,639.75,103.29ZM451.53,43.1c-3.78,0-7.57.06-11.35,0-1.26,0-1.73.42-2,1.57-1.9,7-3.86,13.94-5.82,20.9q-14.37,51-28.78,102c-.51,1.8-.08,2.06,1.61,2q10.4-.13,20.8,0c1.57,0,2.27-.37,2.66-2,1.83-7.77,3.84-15.51,5.74-23.27.28-1.15.61-1.75,2.06-1.74,10,.09,20,.07,30.07,0,1.22,0,1.7.32,2,1.57,1.92,7.88,4,15.73,5.94,23.6.31,1.25.73,1.84,2.2,1.82q10.68-.15,21.37,0c1.8,0,1.87-.49,1.44-2q-6.9-24.32-13.68-48.67Q475.31,81.8,464.91,44.65c-.36-1.3-1-1.61-2.23-1.58C459,43.16,455.25,43.1,451.53,43.1ZM998.42,169.58c-.7-2.55-1.33-4.91-2-7.27Q980,103.63,963.51,44.94c-.42-1.5-1.1-1.9-2.61-1.88-7.19.09-14.38.12-21.56,0-1.85,0-2.44.63-2.89,2.25q-16.43,58.59-33,117.15c-.65,2.32-1.27,4.64-2,7.13,8.15,0,16,0,23.9,0,1.16,0,1.28-.65,1.49-1.5,2-7.94,4-15.86,6-23.8.31-1.27.76-1.69,2.11-1.68q14.94.1,29.88,0c1.31,0,1.82.35,2.14,1.64,2,7.94,4,15.85,6,23.8.31,1.26.84,1.57,2,1.55,4.29-.06,8.57,0,12.86,0ZM821,106.35q0,30.64,0,61.27c0,1.55.38,2,2,2q10.59-.13,21.18,0c1.53,0,1.84-.45,1.83-1.89-.05-13.87,0-27.74-.07-41.61,0-1.56.38-2,2-2,8.25-.1,16.53.61,24.75-.42,11.78-1.48,21.19-7,27.5-17.21,5.16-8.37,6.35-17.61,5.68-27.25-1.47-21.08-16.86-35.81-38-36.06-15-.18-30,0-45-.14-1.72,0-1.74.74-1.74,2Q821,75.71,821,106.35Zm170.18-63c.23.55.45,1.12.7,1.68q16.9,38.07,33.83,76.14a9.06,9.06,0,0,1,.84,3.81c0,14.25,0,28.49,0,42.74,0,1.46.35,1.92,1.87,1.9q10.59-.13,21.18,0c1.57,0,1.82-.51,1.82-1.91,0-13.74,0-27.48-.05-41.22a8.64,8.64,0,0,1,.79-3.63q17.31-39,34.62-77.94c.67-1.51.52-1.86-1.17-1.85-7.56.07-15.13.1-22.69,0a2.87,2.87,0,0,0-3.23,2.19q-9.72,25.26-19.62,50.46c-.21.53-.17,1.27-1,1.49-.2-.48-.39-.94-.57-1.4q-9.82-25.52-19.61-51a2.17,2.17,0,0,0-2.43-1.67c-7.82.07-15.63,0-23.45,0A2.85,2.85,0,0,0,991.19,43.35Z"/><path class="cls-1" d="M106,213q-52.16,0-104.32,0c-1.36,0-1.65-.28-1.64-1.64q.07-52.16,0-104.32c.69.12,1,.72,1.43,1.15,4.24,4.21,8.45,8.45,12.68,12.66l20.72,20.62.39.36c4.68,4.73,9.34,9.49,14.05,14.2q10.86,10.86,21.78,21.67c.47.5.93,1,1.42,1.51q16.08,16.09,32.17,32.19C105.15,211.93,105.81,212.28,106,213Z"/><path class="cls-2" d="M34.87,141.53,14.15,120.91c-4.23-4.22-8.44-8.45-12.68-12.66-.43-.43-.74-1-1.43-1.15v-.76c.52-.44,1.07-.86,1.55-1.34L33.41,73.19c.36-.36.71-.72,1.08-1.06.59-.53,1-.53,1,.4,0,.57,0,1.13,0,1.7q0,33.65,0,67.31v0Z"/><path class="cls-3" d="M106,213c-.15-.74-.81-1.09-1.28-1.57q-16.07-16.1-32.17-32.19c-.49-.49-.95-1-1.42-1.51,0-.2,0-.4,0-.6L106,142.29a1.61,1.61,0,0,1,.31,0v70.33a.62.62,0,0,0,0,.36Z"/><path class="cls-4" d="M303.07,84.59c.33,7.22.57,14.44,1,21.65,1.22,20.58,1.34,41.18,1.23,61.78,0,1.24-.34,1.6-1.59,1.59q-10.78-.09-21.56,0c-1.38,0-1.65-.47-1.65-1.73q0-61.56,0-123.11c0-1.32.37-1.7,1.69-1.69,9.52.05,19,.08,28.56,0,1.6,0,2.13.51,2.48,2q8.49,35.12,17.08,70.23c1.67,6.84,3.34,13.67,5,20.61.87-.43.77-1.24.91-1.82q11.06-44.69,22-89.41c.3-1.23.81-1.56,2-1.55,9.64.05,19.29.07,28.93,0,1.62,0,1.81.58,1.81,2q0,61.37,0,122.74c0,1.3-.18,1.88-1.71,1.86-7.12-.09-14.25,0-21.37,0-1,0-1.73,0-1.72-1.45.1-12.29-.12-24.59.2-36.87.39-14.85,1.21-29.69,1.82-44.54,0-.91.41-1.84,0-2.79-.79.28-.66,1.06-.81,1.59q-11.5,40.86-22.9,81.75c-.47,1.68-1.08,2.44-3,2.35-4.22-.18-8.45-.1-12.67,0a1.74,1.74,0,0,1-2-1.56q-11.12-40-22.33-79.95c-.33-1.19-.7-2.37-1-3.56Z"/><path class="cls-4" d="M573.54,123.56v-2q0-38.2,0-76.41c0-1.65.37-2.1,2-2.07,7,.11,14,.08,21,0,1.33,0,1.68.35,1.68,1.68q-.05,61.56,0,123.12c0,1.47-.45,1.75-1.81,1.74q-10.5-.1-21,0a2.51,2.51,0,0,1-2.7-1.68q-13.36-28.12-26.82-56.2L535.49,89.95c-.16-.33-.22-.73-.76-.93a4,4,0,0,0-.2,2.11q0,38.11,0,76.22c0,1.81-.41,2.31-2.26,2.28-6.93-.12-13.87-.08-20.8,0-1.36,0-1.93-.18-1.93-1.79q.08-61.47,0-122.93c0-1.58.53-1.82,1.92-1.81,7.06.06,14.12.07,21.18,0a2.49,2.49,0,0,1,2.67,1.71q18.33,38.5,36.77,77c.32.66.68,1.29,1,1.94Z"/><path class="cls-5" d="M716.92,106.5c0-7.5-.3-15,.07-22.5.65-13.28,5-25,15.69-33.68,6.72-5.47,14.55-8.14,23.1-8.83,10.53-.84,20.65.55,29.74,6.36,11,7,16.75,17.43,18.8,30.1A74.24,74.24,0,0,1,805.13,90c0,12.36.08,24.71-.1,37.07-.13,9.07-2.08,17.77-7,25.53-7.67,12-19,17.76-33,18.74-8.07.57-16-.2-23.49-3.52-12.46-5.53-19.84-15.27-23.05-28.35a56.31,56.31,0,0,1-1.61-13.66c0-6.43,0-12.86,0-19.29Zm24.59-.34h-.06c0,6.68,0,13.36,0,20a38.64,38.64,0,0,0,2.31,13.7c2.9,7.63,8.7,11.71,16.72,11.77,8.41.07,14.28-3.8,17.38-11.42a36.77,36.77,0,0,0,2.51-13.66c.11-12.86.09-25.71.08-38.57a49,49,0,0,0-1.15-10.87c-2.12-9.33-7.65-15.73-17.91-16.08-8-.27-14.21,3.45-17.32,10.83A32.76,32.76,0,0,0,741.55,84C741.41,91.41,741.51,98.78,741.51,106.16Z"/><path class="cls-5" d="M639.75,103.29c0,10.5,0,17.88,0,25.25a34.52,34.52,0,0,0,1.66,10.21c2.59,8.14,8.78,12.69,17.55,12.9a30.54,30.54,0,0,0,9.17-1,13.9,13.9,0,0,0,7.86-6.13,3,3,0,0,0,.44-1.79c0-6.68,0-13.36,0-20,0-1.22-.3-1.62-1.56-1.6-4.47.07-9,0-13.43.06-1.26,0-1.74-.24-1.72-1.63q.13-7.18,0-14.37c0-1.31.45-1.52,1.61-1.52q19.1.05,38.2,0c1.3,0,1.7.32,1.7,1.66q-.07,22.13,0,44.25a4.12,4.12,0,0,1-.86,2.62C692.28,163,681.59,169.46,668.08,171c-8.08.92-16.14.78-24-1.66-15.76-4.92-25.08-15.67-28.2-31.84a67.52,67.52,0,0,1-1.07-12.59q-.07-18.53,0-37.07c0-7.66.81-15.24,3.88-22.36,5.72-13.27,16-20.91,30-23.42a59.51,59.51,0,0,1,25.11,1c14.23,3.57,22.48,12.88,25.61,27a55,55,0,0,1,1.21,10.12c0,1.16-.31,1.53-1.48,1.53q-10.21-.06-20.42,0c-1.23,0-1.64-.35-1.64-1.6a28,28,0,0,0-1-6.9c-1.66-6.6-5.75-10.66-12.52-11.73-7.21-1.13-13.87-.16-18.81,5.93-3,3.64-4.22,8-4.72,12.55C639.17,88.77,640,97.61,639.75,103.29Z"/><path class="cls-5" d="M451.53,43.1c3.72,0,7.44.06,11.16,0,1.27,0,1.86.28,2.23,1.58q10.37,37.16,20.83,74.29,6.83,24.34,13.68,48.67c.43,1.51.37,2-1.44,2q-10.68-.15-21.37,0c-1.48,0-1.89-.56-2.2-1.82-2-7.87-4-15.72-5.94-23.6-.3-1.25-.78-1.58-2-1.57-10,0-20,.07-30.07,0-1.45,0-1.78.59-2.06,1.74-1.9,7.76-3.91,15.49-5.74,23.27-.39,1.63-1.08,2-2.66,2q-10.4-.13-20.8,0c-1.7,0-2.12-.24-1.61-2q14.45-51,28.78-102c2-7,3.92-13.92,5.82-20.9.31-1.15.78-1.6,2-1.57C444,43.16,447.74,43.1,451.53,43.1Zm0,34.77A10.05,10.05,0,0,0,451,79q-5.42,21.28-10.84,42.55c-.37,1.43.44,1.25,1.27,1.25,6.55,0,13.1-.05,19.65,0,1.68,0,1.84-.49,1.46-2-2.05-7.84-4-15.7-6-23.55C454.9,91,453.29,84.69,451.54,77.87Z"/><path class="cls-5" d="M998.42,169.58H987.89c-4.29,0-8.57,0-12.86,0-1.2,0-1.74-.29-2-1.55-1.94-7.94-4-15.85-6-23.8-.32-1.29-.83-1.65-2.14-1.64q-14.94.09-29.88,0c-1.35,0-1.8.41-2.11,1.68-1.94,7.95-4,15.87-6,23.8-.21.85-.33,1.51-1.49,1.5-7.87,0-15.75,0-23.9,0,.68-2.49,1.3-4.81,2-7.13q16.49-58.57,33-117.15c.46-1.63,1-2.29,2.89-2.25,7.18.14,14.37.11,21.56,0,1.51,0,2.19.38,2.61,1.88q16.42,58.69,32.92,117.37C997.09,164.66,997.72,167,998.42,169.58ZM950,78.34c-.58.28-.49.79-.59,1.17q-5.35,20.91-10.67,41.82c-.32,1.25,0,1.51,1.23,1.51,6.61,0,13.22,0,19.83,0,1.43,0,1.64-.33,1.28-1.73-3.44-13.32-6.79-26.67-10.19-40A6.79,6.79,0,0,0,950,78.34Z"/><path class="cls-5" d="M821,106.35q0-30.64,0-61.27c0-1.28,0-2,1.74-2,15,.1,30,0,45,.14,21.17.25,36.56,15,38,36.06.67,9.64-.52,18.88-5.68,27.25-6.31,10.23-15.71,15.73-27.5,17.21-8.22,1-16.5.32-24.75.42-1.58,0-2,.42-2,2,.06,13.87,0,27.74.07,41.61,0,1.44-.3,1.91-1.83,1.89q-10.59-.13-21.18,0c-1.59,0-2-.44-2-2Q821.06,137,821,106.35Zm24.91-22.7q0,9.64,0,19.28c0,.83-.14,1.57,1.18,1.55,6.36-.08,12.73.06,19.09-.12A13.31,13.31,0,0,0,878.12,97c3.95-7.3,4.07-15,1.66-22.7-2.49-8-7.46-11.37-15.77-11.37-5.48,0-11,0-16.45,0-1.34,0-1.68.37-1.67,1.69C846,70.91,845.92,77.28,845.92,83.64Z"/><path class="cls-4" d="M991.19,43.35a2.85,2.85,0,0,1,1.76-.24c7.82,0,15.63,0,23.45,0a2.17,2.17,0,0,1,2.43,1.67q9.75,25.55,19.61,51c.18.46.37.92.57,1.4.84-.21.81-1,1-1.49q9.85-25.22,19.62-50.46a2.87,2.87,0,0,1,3.23-2.19c7.56.11,15.13.09,22.69,0,1.69,0,1.84.34,1.17,1.85q-17.35,39-34.62,77.94a8.64,8.64,0,0,0-.79,3.63c0,13.74,0,27.48.05,41.22,0,1.4-.24,1.93-1.82,1.91q-10.59-.14-21.18,0c-1.52,0-1.88-.43-1.87-1.9.05-14.24,0-28.49,0-42.74a9.06,9.06,0,0,0-.84-3.81Q1008.77,83.11,991.89,45C991.64,44.47,991.42,43.9,991.19,43.35Z"/><path class="cls-6" d="M176.92,141.91c.11.55-.38.75-.66,1q-16.85,16.88-33.72,33.73a4.55,4.55,0,0,1-.6.43l-.41,0c0-.19,0-.38,0-.57q0-34.23,0-68.46c0-.29.11-.65-.43-.78l-34.57,34.61a3.72,3.72,0,0,1-.24-2.21q0-33,0-66.05c0-.69.06-1.38.09-2.07l.16-.06,36.17,36.14q8.63,8.62,17.24,17.25T176.92,141.91Z"/><path class="cls-7" d="M176.92,141.91q-8.46-8.51-16.92-17t-17.24-17.25L106.58,71.49c.09-.77.74-1.15,1.21-1.63Q124,53.63,140.26,37.4c.39-.39.86-.71,1.29-1.06v70.45c.92-.86,1.43-1.3,1.91-1.78q11.7-11.69,23.39-23.38c3.38-3.38,6.8-6.72,10.2-10.08q0,34.54,0,69.08a8,8,0,0,1-.21,1.29Z"/><path class="cls-8" d="M177,71.55c-3.4,3.36-6.82,6.71-10.2,10.08Q155.14,93.31,143.46,105c-.48.48-1,.92-1.91,1.78V36.34l0,0h.67l35.15,35.19Z"/><path class="cls-9" d="M71.12,177.16q0,.3,0,.6Q60.2,166.92,49.31,156.08c-4.71-4.71-9.37-9.46-14.05-14.2l.3-.36v0c.49,0,.74-.45,1-.75l33.33-33.33a8.92,8.92,0,0,0,.59-.72l.58,0a.69.69,0,0,1,0,.25c-.5.61-.28,1.33-.28,2q0,33.08,0,66.15C70.83,175.83,70.61,176.56,71.12,177.16Z"/><path class="cls-3" d="M141.54,36.34c-.43.35-.9.67-1.29,1.06Q124,53.63,107.79,69.87c-.48.48-1.12.85-1.21,1.63l-.16.06L106,71.5l-.09-.69c.74-.66.41-1.54.41-2.31q0-34,0-67.94a7.7,7.7,0,0,1,.88.66l34.14,34.13a5.79,5.79,0,0,1,.46.59l-.24.41Z"/><path class="cls-10" d="M106.34.56q0,34,0,67.94c0,.78.33,1.65-.41,2.31-.51-.46-1-.91-1.53-1.39L74.31,39.35C73.15,38.2,72,37.09,70.77,36l0,0a11,11,0,0,1,.71-.87Q88.4,18.19,105.32,1.29C105.61,1,105.81.53,106.34.56Z"/><path class="cls-11" d="M177,71.55h.36c2.07,2,4.15,4,6.2,6.08q13.91,13.9,27.83,27.79c.85.85,1.16,1.34.13,2.36q-16.86,16.7-33.63,33.48c-.3.3-.52.75-1.07.65a8,8,0,0,0,.21-1.29Q177.07,106.09,177,71.55Z"/><path class="cls-12" d="M71.1,106.76l-.58,0A5,5,0,0,0,69,104.84Q52.77,88.6,36.52,72.38c-.75-.75-1.16-1.21-.17-2.2q17-16.85,33.83-33.78a4.67,4.67,0,0,1,.6-.44l0,0c0,.75,0,1.51,0,2.26q0,33,0,65.94c0,.72-.29,1.51.29,2.17Z"/><path class="cls-13" d="M141.53,177.08l.41,0-35.42,35.5s-.12,0-.18.06q0-35.17,0-70.33l.21-.06L140,175.7C140.48,176.18,141,176.62,141.53,177.08Z"/><path class="cls-13" d="M141.59,36.36l.24-.41.44.41Z"/><path class="cls-12" d="M35.56,141.52l-.3.36-.39-.36Z"/><path class="cls-10" d="M106.55,142.28l-.21.06a1.66,1.66,0,0,0-.31,0c-.08-.62-.57-1-1-1.36L71.12,107a.69.69,0,0,0,0-.25l0-.43q4.06-4.08,8.13-8.16L106,71.5l.41.05c0,.69-.09,1.38-.09,2.07q0,33,0,66.05a3.72,3.72,0,0,0,.24,2.21Z"/><path class="cls-7" d="M71.12,107l33.95,33.92c.39.39.88.73,1,1.36L71.12,177.16c-.51-.6-.29-1.33-.29-2q0-33.08,0-66.15C70.83,108.34,70.62,107.62,71.12,107Z"/><path class="cls-1" d="M741.51,106.16c0-7.37-.11-14.75,0-22.12a32.76,32.76,0,0,1,2.53-12.13c3.11-7.39,9.33-11.11,17.32-10.83,10.26.35,15.78,6.75,17.91,16.08A49,49,0,0,1,780.46,88c0,12.86,0,25.71-.08,38.57a36.77,36.77,0,0,1-2.51,13.66c-3.1,7.62-9,11.48-17.38,11.42-8-.06-13.83-4.14-16.72-11.77a38.64,38.64,0,0,1-2.31-13.7c0-6.68,0-13.36,0-20Z"/><path class="cls-7" d="M451.54,77.87c1.74,6.82,3.36,13.15,5,19.47,2,7.85,4,15.72,6,23.55.38,1.46.22,2-1.46,2-6.55-.09-13.1,0-19.65,0-.84,0-1.64.18-1.27-1.25Q445.63,100.3,451,79A10.05,10.05,0,0,1,451.54,77.87Z"/><path class="cls-7" d="M950,78.34a6.79,6.79,0,0,1,.89,2.78c3.4,13.33,6.75,26.68,10.19,40,.36,1.39.15,1.74-1.28,1.73-6.61-.06-13.22,0-19.83,0-1.18,0-1.55-.26-1.23-1.51q5.37-20.9,10.67-41.82C949.49,79.13,949.41,78.62,950,78.34Z"/><path class="cls-1" d="M845.92,83.64c0-6.36,0-12.73,0-19.09,0-1.31.33-1.7,1.67-1.69,5.48.08,11,0,16.45,0,8.31,0,13.28,3.41,15.77,11.37,2.41,7.72,2.28,15.41-1.66,22.7a13.31,13.31,0,0,1-11.93,7.39c-6.36.18-12.73,0-19.09.12-1.32,0-1.18-.72-1.18-1.55Q845.93,93.28,845.92,83.64Z"/><path class="cls-1" d="M106.55,142.28l0-.39,34.57-34.61c.53.14.43.5.43.78q0,34.23,0,68.46c0,.19,0,.38,0,.57-.51-.46-1-.9-1.53-1.38Z"/><path class="cls-7" d="M106,71.5,79.25,98.17q-4.08,4.07-8.13,8.16c-.58-.66-.29-1.45-.29-2.17q0-33,0-65.94c0-.75,0-1.51,0-2.26,1.18,1.13,2.38,2.25,3.54,3.4l30.08,30.07c.49.49,1,.93,1.53,1.39Z"/></g></g></svg>