<svg xmlns="http://www.w3.org/2000/svg" viewBox="0 0 1087.09 212.5"><defs><style>.cls-1{fill:#fefefe;}.cls-2{fill:#c6c6c6;}.cls-3{fill:#fefdfd;}.cls-4{fill:#eb6551;}.cls-5{fill:#f5ca5c;}</style></defs><title>Fichier 2</title><g id="Calque_2" data-name="Calque 2"><g id="Calque_1-2" data-name="Calque 1"><path class="cls-1" d="M106,212.46q-52.16,0-104.32,0c-1.36,0-1.65-.28-1.64-1.64q.07-52.16,0-104.32c.69.12,1,.72,1.43,1.15,4.24,4.21,8.45,8.45,12.68,12.66L34.87,141l.39.36c4.68,4.73,9.34,9.49,14.05,14.2q10.86,10.86,21.78,21.67c.47.5.93,1,1.42,1.51q16.08,16.09,32.17,32.19C105.15,211.37,105.81,211.72,106,212.46Z"/><path class="cls-2" d="M34.87,141,14.15,120.35c-4.23-4.22-8.44-8.45-12.68-12.66-.43-.43-.74-1-1.43-1.15v-.76c.52-.44,1.07-.86,1.55-1.34L33.41,72.63c.36-.36.71-.72,1.08-1.06.59-.53,1-.53,1,.4,0,.57,0,1.13,0,1.7q0,33.65,0,67.31v0Z"/><path class="cls-2" d="M106,212.46c-.15-.74-.81-1.09-1.28-1.57q-16.07-16.1-32.17-32.19c-.49-.49-.95-1-1.42-1.51,0-.2,0-.4,0-.6L106,141.73a1.61,1.61,0,0,1,.31,0v70.33a.62.62,0,0,0,0,.36Z"/><path class="cls-2" d="M303.07,84c.33,7.22.57,14.44,1,21.65,1.22,20.58,1.34,41.18,1.23,61.78,0,1.24-.34,1.6-1.59,1.59q-10.78-.09-21.56,0c-1.38,0-1.65-.47-1.65-1.73q0-61.56,0-123.11c0-1.32.37-1.7,1.69-1.69,9.52.05,19,.08,28.56,0,1.6,0,2.13.51,2.48,2q8.49,35.12,17.08,70.23c1.67,6.84,3.34,13.67,5,20.61.87-.43.77-1.24.91-1.82q11.06-44.69,22-89.41c.3-1.23.81-1.56,2-1.55,9.64.05,19.29.07,28.93,0,1.62,0,1.81.58,1.81,2q0,61.37,0,122.74c0,1.3-.18,1.88-1.71,1.86-7.12-.09-14.25,0-21.37,0-1,0-1.73,0-1.72-1.45.1-12.29-.12-24.59.2-36.87.39-14.85,1.21-29.69,1.82-44.54,0-.91.41-1.84,0-2.79-.79.28-.66,1.06-.81,1.59q-11.5,40.86-22.9,81.75c-.47,1.68-1.08,2.44-3,2.35-4.22-.18-8.45-.1-12.67,0a1.74,1.74,0,0,1-2-1.56q-11.12-40-22.33-79.95c-.33-1.19-.7-2.37-1-3.56Z"/><path class="cls-2" d="M573.54,123v-2q0-38.2,0-76.41c0-1.65.37-2.1,2-2.07,7,.11,14,.08,21,0,1.33,0,1.68.35,1.68,1.68q-.05,61.56,0,123.12c0,1.47-.45,1.75-1.81,1.74q-10.5-.1-21,0a2.51,2.51,0,0,1-2.7-1.68q-13.36-28.12-26.82-56.2L535.49,89.39c-.16-.33-.22-.73-.76-.93a4,4,0,0,0-.2,2.11q0,38.11,0,76.22c0,1.81-.41,2.31-2.26,2.28-6.93-.12-13.87-.08-20.8,0-1.36,0-1.93-.18-1.93-1.79q.08-61.47,0-122.93c0-1.58.53-1.82,1.92-1.81,7.06.06,14.12.07,21.18,0a2.49,2.49,0,0,1,2.67,1.71q18.33,38.5,36.77,77c.32.66.68,1.29,1,1.94Z"/><path class="cls-2" d="M716.92,105.94c0-7.5-.3-15,.07-22.5.65-13.28,5-25,15.69-33.68,6.72-5.47,14.55-8.14,23.1-8.83,10.53-.84,20.65.55,29.74,6.36,11,7,16.75,17.43,18.8,30.1a74.24,74.24,0,0,1,.81,12.05c0,12.36.08,24.71-.1,37.07-.13,9.07-2.08,17.77-7,25.53-7.67,12-19,17.76-33,18.74-8.07.57-16-.2-23.49-3.52C729,161.72,721.67,152,718.46,138.89a56.31,56.31,0,0,1-1.61-13.66c0-6.43,0-12.86,0-19.29Zm24.59-.34h-.06c0,6.68,0,13.36,0,20a38.64,38.64,0,0,0,2.31,13.7c2.9,7.63,8.7,11.71,16.72,11.77,8.41.07,14.28-3.8,17.38-11.42A36.77,36.77,0,0,0,780.38,126c.11-12.86.09-25.71.08-38.57a49,49,0,0,0-1.15-10.87c-2.12-9.33-7.65-15.73-17.91-16.08-8-.27-14.21,3.45-17.32,10.83a32.76,32.76,0,0,0-2.53,12.13C741.41,90.85,741.51,98.22,741.51,105.6Z"/><path class="cls-2" d="M639.75,102.74c0,10.5,0,17.88,0,25.25a34.52,34.52,0,0,0,1.66,10.21c2.59,8.14,8.78,12.69,17.55,12.9a30.54,30.54,0,0,0,9.17-1A13.9,13.9,0,0,0,676,144a3,3,0,0,0,.44-1.79c0-6.68,0-13.36,0-20,0-1.22-.3-1.62-1.56-1.6-4.47.07-9,0-13.43.06-1.26,0-1.74-.24-1.72-1.63q.13-7.18,0-14.37c0-1.31.45-1.52,1.61-1.52q19.1.05,38.2,0c1.3,0,1.7.32,1.7,1.66q-.07,22.13,0,44.25a4.12,4.12,0,0,1-.86,2.62c-8.12,10.83-18.81,17.27-32.32,18.81-8.08.92-16.14.78-24-1.66-15.76-4.92-25.08-15.67-28.2-31.84a67.52,67.52,0,0,1-1.07-12.59q-.07-18.53,0-37.07c0-7.66.81-15.24,3.88-22.36,5.72-13.27,16-20.91,30-23.42a59.51,59.51,0,0,1,25.11,1c14.23,3.57,22.48,12.88,25.61,27a55,55,0,0,1,1.21,10.12c0,1.16-.31,1.53-1.48,1.53q-10.21-.06-20.42,0c-1.23,0-1.64-.35-1.64-1.6a28,28,0,0,0-1-6.9c-1.66-6.6-5.75-10.66-12.52-11.73-7.21-1.13-13.87-.16-18.81,5.93-3,3.64-4.22,8-4.72,12.55C639.17,88.21,640,97,639.75,102.74Z"/><path class="cls-2" d="M451.53,42.54c3.72,0,7.44.06,11.16,0,1.27,0,1.86.28,2.23,1.58q10.37,37.16,20.83,74.29,6.83,24.34,13.68,48.67c.43,1.51.37,2-1.44,2q-10.68-.15-21.37,0c-1.48,0-1.89-.56-2.2-1.82-2-7.87-4-15.72-5.94-23.6-.3-1.25-.78-1.58-2-1.57-10,0-20,.07-30.07,0-1.45,0-1.78.59-2.06,1.74-1.9,7.76-3.91,15.49-5.74,23.27-.39,1.63-1.08,2-2.66,2q-10.4-.13-20.8,0c-1.7,0-2.12-.24-1.61-2Q418,116,432.32,65c2-7,3.92-13.92,5.82-20.9.31-1.15.78-1.6,2-1.57C444,42.6,447.74,42.54,451.53,42.54Zm0,34.77a10.05,10.05,0,0,0-.54,1.14Q445.59,99.73,440.16,121c-.37,1.43.44,1.25,1.27,1.25,6.55,0,13.1-.05,19.65,0,1.68,0,1.84-.49,1.46-2-2.05-7.84-4-15.7-6-23.55C454.9,90.46,453.29,84.13,451.54,77.31Z"/><path class="cls-2" d="M998.42,169H987.89c-4.29,0-8.57,0-12.86,0-1.2,0-1.74-.29-2-1.55-1.94-7.94-4-15.85-6-23.8-.32-1.29-.83-1.65-2.14-1.64q-14.94.09-29.88,0c-1.35,0-1.8.41-2.11,1.68-1.94,7.95-4,15.87-6,23.8-.21.85-.33,1.51-1.49,1.5-7.87,0-15.75,0-23.9,0,.68-2.49,1.3-4.81,2-7.13q16.49-58.57,33-117.15c.46-1.63,1-2.29,2.89-2.25,7.18.14,14.37.11,21.56,0,1.51,0,2.19.38,2.61,1.88q16.42,58.69,32.92,117.37C997.09,164.1,997.72,166.46,998.42,169ZM950,77.78c-.58.28-.49.79-.59,1.17Q944,99.86,938.72,120.77c-.32,1.25,0,1.51,1.23,1.51,6.61,0,13.22,0,19.83,0,1.43,0,1.64-.33,1.28-1.73-3.44-13.32-6.79-26.67-10.19-40A6.79,6.79,0,0,0,950,77.78Z"/><path class="cls-2" d="M821,105.79q0-30.64,0-61.27c0-1.28,0-2,1.74-2,15,.1,30,0,45,.14,21.17.25,36.56,15,38,36.06.67,9.64-.52,18.88-5.68,27.25-6.31,10.23-15.71,15.73-27.5,17.21-8.22,1-16.5.32-24.75.42-1.58,0-2,.42-2,2,.06,13.87,0,27.74.07,41.61,0,1.44-.3,1.91-1.83,1.89q-10.59-.13-21.18,0c-1.59,0-2-.44-2-2Q821.06,136.42,821,105.79Zm24.91-22.7q0,9.64,0,19.28c0,.83-.14,1.57,1.18,1.55,6.36-.08,12.73.06,19.09-.12a13.31,13.31,0,0,0,11.93-7.39c3.95-7.3,4.07-15,1.66-22.7-2.49-8-7.46-11.37-15.77-11.37-5.48,0-11,0-16.45,0-1.34,0-1.68.37-1.67,1.69C846,70.35,845.92,76.72,845.92,83.08Z"/><path class="cls-2" d="M991.19,42.79a2.85,2.85,0,0,1,1.76-.24c7.82,0,15.63,0,23.45,0a2.17,2.17,0,0,1,2.43,1.67q9.75,25.55,19.61,51c.18.46.37.92.57,1.4.84-.21.81-1,1-1.49q9.85-25.22,19.62-50.46a2.87,2.87,0,0,1,3.23-2.19c7.56.11,15.13.09,22.69,0,1.69,0,1.84.34,1.17,1.85q-17.35,39-34.62,77.94a8.64,8.64,0,0,0-.79,3.63c0,13.74,0,27.48.05,41.22,0,1.4-.24,1.93-1.82,1.91q-10.59-.14-21.18,0c-1.52,0-1.88-.43-1.87-1.9.05-14.24,0-28.49,0-42.74a9.06,9.06,0,0,0-.84-3.81q-16.94-38.05-33.83-76.14C991.64,43.91,991.42,43.34,991.19,42.79Z"/><path class="cls-2" d="M176.92,141.35c.11.55-.38.75-.66,1q-16.85,16.88-33.72,33.73a4.55,4.55,0,0,1-.6.43l-.41,0c0-.19,0-.38,0-.57q0-34.23,0-68.46c0-.29.11-.65-.43-.78l-34.57,34.61a3.72,3.72,0,0,1-.24-2.21q0-33,0-66.05c0-.69.06-1.38.09-2.07l.16-.06,36.17,36.14q8.63,8.62,17.24,17.25T176.92,141.35Z"/><path class="cls-3" d="M176.92,141.35q-8.46-8.51-16.92-17t-17.24-17.25L106.58,70.94c.09-.77.74-1.15,1.21-1.63Q124,53.07,140.26,36.84c.39-.39.86-.71,1.29-1.06v70.45c.92-.86,1.43-1.3,1.91-1.78q11.7-11.69,23.39-23.38c3.38-3.38,6.8-6.72,10.2-10.08q0,34.54,0,69.08a8,8,0,0,1-.21,1.29Z"/><path class="cls-2" d="M177,71c-3.4,3.36-6.82,6.71-10.2,10.08q-11.71,11.68-23.39,23.38c-.48.48-1,.92-1.91,1.78V35.78l0,0h.67L177.41,71Z"/><path class="cls-2" d="M71.12,176.6q0,.3,0,.6Q60.2,166.36,49.31,155.52c-4.71-4.71-9.37-9.46-14.05-14.2l.3-.36v0c.49,0,.74-.45,1-.75L69.93,106.9a8.92,8.92,0,0,0,.59-.72l.58,0a.69.69,0,0,1,0,.25c-.5.61-.28,1.33-.28,2q0,33.08,0,66.15C70.83,175.27,70.61,176,71.12,176.6Z"/><path class="cls-2" d="M141.54,35.78c-.43.35-.9.67-1.29,1.06Q124,53.07,107.79,69.31c-.48.48-1.12.85-1.21,1.63l-.16.06-.41-.05-.09-.69c.74-.66.41-1.54.41-2.31q0-34,0-67.94a7.7,7.7,0,0,1,.88.66L141.37,34.8a5.79,5.79,0,0,1,.46.59l-.24.41Z"/><path class="cls-2" d="M106.34,0q0,34,0,67.94c0,.78.33,1.65-.41,2.31-.51-.46-1-.91-1.53-1.39L74.31,38.79c-1.16-1.16-2.36-2.27-3.54-3.4l0,0a11,11,0,0,1,.71-.87Q88.4,17.63,105.32.73C105.61.44,105.81,0,106.34,0Z"/><path class="cls-2" d="M177,71h.36c2.07,2,4.15,4,6.2,6.08q13.91,13.9,27.83,27.79c.85.85,1.16,1.34.13,2.36q-16.86,16.7-33.63,33.48c-.3.3-.52.75-1.07.65a8,8,0,0,0,.21-1.29Q177.07,105.53,177,71Z"/><path class="cls-2" d="M71.1,106.2l-.58,0A5,5,0,0,0,69,104.29Q52.77,88,36.52,71.83c-.75-.75-1.16-1.21-.17-2.2q17-16.85,33.83-33.78a4.67,4.67,0,0,1,.6-.44l0,0c0,.75,0,1.51,0,2.26q0,33,0,65.94c0,.72-.29,1.51.29,2.17Z"/><path class="cls-2" d="M141.53,176.52l.41,0L106.52,212s-.12,0-.18.06q0-35.17,0-70.33l.21-.06L140,175.14C140.48,175.63,141,176.06,141.53,176.52Z"/><path class="cls-4" d="M141.59,35.8l.24-.41.44.41Z"/><path class="cls-5" d="M35.56,141l-.3.36-.39-.36Z"/><path class="cls-2" d="M106.55,141.72l-.21.06a1.66,1.66,0,0,0-.31,0c-.08-.62-.57-1-1-1.36L71.12,106.45a.69.69,0,0,0,0-.25l0-.43q4.06-4.08,8.13-8.16L106,70.94l.41.05c0,.69-.09,1.38-.09,2.07q0,33,0,66.05a3.72,3.72,0,0,0,.24,2.21Z"/><path class="cls-3" d="M71.12,106.45l33.95,33.92c.39.39.88.73,1,1.36L71.12,176.6c-.51-.6-.29-1.33-.29-2q0-33.08,0-66.15C70.83,107.78,70.62,107.06,71.12,106.45Z"/><path class="cls-1" d="M741.51,105.6c0-7.37-.11-14.75,0-22.12a32.76,32.76,0,0,1,2.53-12.13c3.11-7.39,9.33-11.11,17.32-10.83,10.26.35,15.78,6.75,17.91,16.08a49,49,0,0,1,1.15,10.87c0,12.86,0,25.71-.08,38.57a36.77,36.77,0,0,1-2.51,13.66c-3.1,7.62-9,11.48-17.38,11.42-8-.06-13.83-4.14-16.72-11.77a38.64,38.64,0,0,1-2.31-13.7c0-6.68,0-13.36,0-20Z"/><path class="cls-3" d="M451.54,77.31c1.74,6.82,3.36,13.15,5,19.47,2,7.85,4,15.72,6,23.55.38,1.46.22,2-1.46,2-6.55-.09-13.1,0-19.65,0-.84,0-1.64.18-1.27-1.25Q445.63,99.74,451,78.45A10.05,10.05,0,0,1,451.54,77.31Z"/><path class="cls-3" d="M950,77.78a6.79,6.79,0,0,1,.89,2.78c3.4,13.33,6.75,26.68,10.19,40,.36,1.39.15,1.74-1.28,1.73-6.61-.06-13.22,0-19.83,0-1.18,0-1.55-.26-1.23-1.51q5.37-20.9,10.67-41.82C949.49,78.57,949.41,78.06,950,77.78Z"/><path class="cls-1" d="M845.92,83.08c0-6.36,0-12.73,0-19.09,0-1.31.33-1.7,1.67-1.69,5.48.08,11,0,16.45,0,8.31,0,13.28,3.41,15.77,11.37,2.41,7.72,2.28,15.41-1.66,22.7a13.31,13.31,0,0,1-11.93,7.39c-6.36.18-12.73,0-19.09.12-1.32,0-1.18-.72-1.18-1.55Q845.93,92.72,845.92,83.08Z"/><path class="cls-1" d="M106.55,141.72l0-.39,34.57-34.61c.53.14.43.5.43.78q0,34.23,0,68.46c0,.19,0,.38,0,.57-.51-.46-1-.9-1.53-1.38Z"/><path class="cls-3" d="M106,70.94,79.25,97.61q-4.08,4.07-8.13,8.16c-.58-.66-.29-1.45-.29-2.17q0-33,0-65.94c0-.75,0-1.51,0-2.26,1.18,1.13,2.38,2.25,3.54,3.4l30.08,30.07c.49.49,1,.93,1.53,1.39Z"/></g></g></svg>