<svg xmlns="http://www.w3.org/2000/svg" viewBox="0 0 19.34 26.28"><defs><style>.cls-1{fill:#a984bf;}</style></defs><title>Fichier 24</title><g id="Calque_2" data-name="Calque 2"><g id="Calque_1-2" data-name="Calque 1"><path class="cls-1" d="M9.67,26.28a1.38,1.38,0,0,1-1-.46C8.29,25.43,0,16.11,0,9.67a9.67,9.67,0,0,1,19.34,0c0,6.44-8.29,15.76-8.65,16.15a1.38,1.38,0,0,1-1,.46Zm0-25.17A8.57,8.57,0,0,0,1.11,9.67c0,6,8,15,8.36,15.41a.26.26,0,0,0,.2.09h0a.26.26,0,0,0,.2-.09c.34-.38,8.36-9.39,8.36-15.41A8.57,8.57,0,0,0,9.67,1.11Zm0,13.7a5.14,5.14,0,1,1,5.14-5.14A5.15,5.15,0,0,1,9.67,14.81Zm0-9.17a4,4,0,1,0,4,4A4,4,0,0,0,9.67,5.64Z"/></g></g></svg>