<svg xmlns="http://www.w3.org/2000/svg" viewBox="0 0 45.18 29.28"><defs><style>.cls-1{fill:#c6c6c6;}</style></defs><title>Fichier 1</title><g id="Calque_2" data-name="Calque 2"><g id="Calque_1-2" data-name="Calque 1"><path class="cls-1" d="M12,12.7a4.24,4.24,0,0,0-1.49.27L10.37,14a3.87,3.87,0,0,1,1.34-.22c.46,0,.8.05.8.43a.85.85,0,0,1,0,.31l-.53,0c-1.07,0-2.19.45-2.19,1.83a1.17,1.17,0,0,0,1.19,1.33,1.62,1.62,0,0,0,1.27-.57l0,.47h1.09l.48-3.4A1.46,1.46,0,0,0,12,12.7Zm-.61,3.95a.45.45,0,0,1-.48-.46c0-.34.18-.75,1.09-.75a.71.71,0,0,1,.27,0c0,.21-.13,1.18-.87,1.18Zm3.86-2.41c0,.62,1.47.31,1.47,1.85s-1.59,1.57-1.87,1.57a3.89,3.89,0,0,1-1.38-.15l.16-1.08a3.83,3.83,0,0,0,1.1.19c.33,0,.76,0,.76-.43,0-.6-1.54-.45-1.54-1.87,0-1.25.93-1.61,1.84-1.61a5.74,5.74,0,0,1,1.14.1l-.16,1.09s-.67-.06-.84-.06c-.44,0-.68.1-.68.41Zm2.93,1.88c0,.17,0,.4.45.4.11,0,.23,0,.32,0l-.16,1.05a3.19,3.19,0,0,1-.93.16.92.92,0,0,1-1-1c0-.49.7-4.52.73-4.55h1.23l-.12.72h.61L19.22,14h-.65ZM23,15.61a8.77,8.77,0,0,0,.17-1.12,1.66,1.66,0,0,0-1.76-1.81c-1.24,0-2.16,1.34-2.16,2.85a1.94,1.94,0,0,0,2.13,2.16,3.19,3.19,0,0,0,1.3-.2l.22-1.19a3.89,3.89,0,0,1-1.31.3c-1.32,0-1.09-1-1.09-1Zm-1.59-1.82c.7,0,.57.78.57.85H20.59c0-.08.13-.85.8-.85Zm-11.2-2.07-1,5.88H8l.7-4.43L7.07,17.6H6.22l-.11-4.43L5.35,17.6H4.16l1-5.88H7L7,15.32l1.21-3.61Zm15.62-.77H19.4c.06-.12.29-.61.63-1.24h5.29a12.47,12.47,0,0,1,.5,1.24ZM24.64,8.48H20.71c.25-.42.53-.84.83-1.24h2.2a11.7,11.7,0,0,1,.9,1.24ZM22.59,23.24A11.89,11.89,0,0,1,21.4,22H23.8a11.25,11.25,0,0,1-1.18,1.24h0l0,0Zm2.06-2.46H20.54a11.36,11.36,0,0,1-.68-1.24h5.47a11.5,11.5,0,0,1-.68,1.24Zm1.47-8a4.76,4.76,0,0,0-.46,1.43c-.85-.3-.92,1.36-1.28,3.4H23.11l.77-4.79H25l-.11.69s.41-.75,1-.75a1.33,1.33,0,0,1,.24,0Zm2.28,3.71a3,3,0,0,0,1-.3l-.22,1.35a5.75,5.75,0,0,1-1.08.17c-1.47,0-2.22-1-2.22-2.55,0-2.32,1.39-3.56,2.81-3.56a4.45,4.45,0,0,1,1.39.3l-.2,1.31a2.2,2.2,0,0,0-1.14-.36c-.84,0-1.59.8-1.59,2.26a1.22,1.22,0,0,0,1.23,1.39Zm12.06.43a.31.31,0,0,0-.14.14.36.36,0,0,0,0,.19.35.35,0,0,0,0,.18.34.34,0,0,0,.14.14.41.41,0,0,0,.19.05.42.42,0,0,0,.19-.05.33.33,0,0,0,.14-.14.35.35,0,0,0,.05-.18.36.36,0,0,0-.05-.19.35.35,0,0,0-.14-.14.38.38,0,0,0-.37,0Zm.45.17a.31.31,0,0,1,0,.15.31.31,0,0,1,0,.16.29.29,0,0,1-.11.12.31.31,0,0,1-.31,0,.31.31,0,0,1-.12-.12.32.32,0,0,1,0-.16.27.27,0,0,1,0-.15.28.28,0,0,1,.12-.12.32.32,0,0,1,.15,0,.31.31,0,0,1,.15,0,.26.26,0,0,1,.12.12Zm-5-1.42c0,1,.5,2,1.53,2a1.55,1.55,0,0,0,1.15-.51l-.05.44h1.2l.95-5.87H39.43l-.27,1.65A1.63,1.63,0,0,0,38,12.73c-1.13,0-2.08,1.37-2.08,2.93Zm3-.72c0,.65-.32,1.52-1,1.52-.44,0-.65-.37-.65-1,0-1,.43-1.59,1-1.59s.67.31.67,1Zm2,6.19,0,0a.15.15,0,0,0,.08,0,.11.11,0,0,0,0-.08.12.12,0,0,0,0-.06l-.05,0h-.24v.4h.07v-.17h0l.05,0a.24.24,0,0,1,.07.09l0,.06H41l0-.08-.06-.08Zm-.09-.07H40.7v-.12h.14l0,0a.09.09,0,0,1,0,0,.07.07,0,0,1,0,0ZM44,0H1.16A1.16,1.16,0,0,0,0,1.16v27a1.16,1.16,0,0,0,1.16,1.16H44a1.16,1.16,0,0,0,1.16-1.16v-27A1.16,1.16,0,0,0,44,0ZM41.13,21.26a.37.37,0,0,1-.51.14.36.36,0,0,1-.14-.14.39.39,0,0,1-.05-.19.4.4,0,0,1,.05-.19.37.37,0,0,1,.14-.14.36.36,0,0,1,.18-.05.4.4,0,0,1,.19.05.33.33,0,0,1,.14.14.38.38,0,0,1,.05.19.4.4,0,0,1,0,.19ZM42,14.64a11.59,11.59,0,0,1-19.37,8.6A11.6,11.6,0,1,1,14.74,3h.07a11.56,11.56,0,0,1,7.77,3A11.6,11.6,0,0,1,42,14.64ZM40.48,17v.4h.07v-.17h.09a.36.36,0,0,1,.07.1l0,.06h.08l-.05-.08-.06-.08,0,0a.12.12,0,0,0,.08,0,.1.1,0,0,0,0-.07.1.1,0,0,0,0-.06.1.1,0,0,0,0,0h-.24Zm.23.09a0,0,0,0,1,0,0,.06.06,0,0,1,0,0l-.08,0h-.08V17.1h.14l0,0ZM32.05,12.7a4.25,4.25,0,0,0-1.5.27L30.38,14a3.88,3.88,0,0,1,1.35-.22c.46,0,.8.05.8.43a.78.78,0,0,1,0,.31l-.53,0c-1.07,0-2.19.45-2.19,1.83A1.17,1.17,0,0,0,31,17.68a1.61,1.61,0,0,0,1.27-.57l0,.47h1.09l.48-3.4a1.46,1.46,0,0,0-1.7-1.49Zm-.61,3.95a.45.45,0,0,1-.48-.46c0-.34.18-.75,1.09-.75a.7.7,0,0,1,.27,0c0,.21-.13,1.18-.87,1.18ZM36,14.2c-.86-.3-.92,1.36-1.29,3.4H33.48l.77-4.79H35.4l-.11.69s.41-.75,1-.75a1.33,1.33,0,0,1,.24,0A4.68,4.68,0,0,0,36,14.2Zm0,0"/></g></g></svg>