<?xml version="1.0" encoding="utf-8"?>
<!-- Generator: Adobe Illustrator 21.0.0, SVG Export Plug-In . SVG Version: 6.00 Build 0)  -->
<svg version="1.1" id="Calque_1" xmlns="http://www.w3.org/2000/svg" xmlns:xlink="http://www.w3.org/1999/xlink" x="0px" y="0px"
	 viewBox="0 0 22 22" style="enable-background:new 0 0 22 22;" xml:space="preserve">
<style type="text/css">
	.st0{fill:#A984BF;}
</style>
<title>Fichier 25</title>
<g id="Calque_2">
	<g id="Calque_1-2">
		<path class="st0" d="M18.8,3.2c-4.3-4.3-11.3-4.3-15.6,0s-4.3,11.3,0,15.6s11.3,4.3,15.6,0S23.1,7.5,18.8,3.2z M11,20.9
			c-5.5,0-9.9-4.4-9.9-9.9c0-5.5,4.4-9.9,9.9-9.9c5.5,0,9.9,4.4,9.9,9.9c0,0,0,0,0,0C20.9,16.5,16.5,20.9,11,20.9z"/>
	</g>
</g>
<g>
	<path class="st0" d="M14.6,16.1c-0.5,0.4-1.4,0.7-2.6,0.7c-1.4,0-2.6-0.5-3.5-1.5c-0.7-0.7-1.1-1.7-1.2-3H6.2v-0.8h1
		c0-0.1,0-0.2,0-0.3c0-0.3,0-0.5,0-0.8h-1V9.5h1.1c0.2-1.2,0.7-2.2,1.4-2.9c0.9-0.9,2-1.4,3.4-1.4c1,0,1.8,0.3,2.3,0.6l-0.3,1.1
		c-0.4-0.3-1.2-0.5-1.9-0.5c-0.9,0-1.7,0.3-2.3,1c-0.5,0.5-0.9,1.3-1,2.2h4.8v0.9h-5c0,0.2,0,0.5,0,0.7c0,0.1,0,0.2,0,0.3h5v0.8H8.8
		c0.1,1,0.5,1.7,1,2.3c0.6,0.7,1.5,1,2.4,1c0.9,0,1.7-0.3,2.1-0.6L14.6,16.1z"/>
</g>
</svg>
