<svg xmlns="http://www.w3.org/2000/svg" viewBox="0 0 22 22"><defs><style>.cls-1{fill:#a984bf;}</style></defs><title>Fichier 25</title><g id="Calque_2" data-name="Calque 2"><g id="Calque_1-2" data-name="Calque 1"><path class="cls-1" d="M11.82,10.44H10.19a1.23,1.23,0,1,1,0-2.46h2.88a.56.56,0,1,0,0-1.12h-1.5V5.71a.56.56,0,0,0-1.12,0V6.85h-.26a2.35,2.35,0,0,0,0,4.71h1.63a1.23,1.23,0,1,1,0,2.46H8.88a.56.56,0,1,0,0,1.12h1.55v1.17a.56.56,0,0,0,1.12,0V15.15h.29a2.35,2.35,0,0,0,0-4.71Zm0,0"/><path class="cls-1" d="M18.78,3.22A11,11,0,0,0,3.22,18.78,11,11,0,0,0,18.78,3.22ZM11,20.88A9.88,9.88,0,1,1,20.88,11,9.89,9.89,0,0,1,11,20.88Zm0,0"/></g></g></svg>