<svg xmlns="http://www.w3.org/2000/svg" viewBox="0 0 39 39"><defs><style>.cls-1{fill:#32c5d2;}</style></defs><title>Fichier 2</title><g id="Calque_2" data-name="Calque 2"><g id="Calque_1-2" data-name="Calque 1"><path class="cls-1" d="M20.46,24.35H9.87a.44.44,0,0,1-.44-.44V15.56H28.12v1.1a.55.55,0,1,0,1.1,0v-4a1.54,1.54,0,0,0-1.54-1.54H9.87a1.54,1.54,0,0,0-1.54,1.54V23.92a1.54,1.54,0,0,0,1.54,1.54h10.6a.55.55,0,1,0,0-1.1ZM9.87,12.27h17.8a.44.44,0,0,1,.44.44v1.76H9.43V12.71a.44.44,0,0,1,.44-.44Zm0,0"/><path class="cls-1" d="M19.32,19.64a.55.55,0,0,0-.55-.55H12.18a.55.55,0,0,0,0,1.1h6.59a.55.55,0,0,0,.55-.55Zm0,0"/><path class="cls-1" d="M12.18,21.06a.55.55,0,0,0,0,1.1h2.64a.55.55,0,1,0,0-1.1Zm0,0"/><path class="cls-1" d="M12.11,18.2h6.59a.55.55,0,0,0,0-1.1H12.11a.55.55,0,0,0,0,1.1Zm0,0"/><path class="cls-1" d="M30.12,22h-.8V20.7a2.88,2.88,0,1,0-5.76,0V22h-.81a.55.55,0,0,0-.55.55v4.76a.55.55,0,0,0,.55.55h7.37a.55.55,0,0,0,.55-.55V22.53a.54.54,0,0,0-.54-.55Zm-5.47-1.29a1.78,1.78,0,0,1,3.57,0V22H24.65Zm4.92,6H23.3V23.07h6.27v3.66Zm0,0"/><path class="cls-1" d="M19.5,39A19.5,19.5,0,1,1,39,19.5,19.52,19.52,0,0,1,19.5,39Zm0-37.57A18.07,18.07,0,1,0,37.57,19.5,18.09,18.09,0,0,0,19.5,1.43Z"/></g></g></svg>