<svg xmlns="http://www.w3.org/2000/svg" viewBox="0 0 22 22.09"><defs><style>.cls-1{fill:none;stroke:#a984bf;stroke-miterlimit:10;}</style></defs><title>Fichier 25</title><g id="Calque_2" data-name="Calque 2"><g id="Calque_1-2" data-name="Calque 1"><path class="cls-1" d="M4.76,14.52a22.41,22.41,0,0,0,7.44,5.83,11.58,11.58,0,0,0,4.16,1.23h.29a3.45,3.45,0,0,0,2.67-1.15l0,0a11.36,11.36,0,0,1,.84-.87c.2-.2.41-.4.61-.61a2.11,2.11,0,0,0,0-3.13l-2.63-2.62a2.12,2.12,0,0,0-1.53-.71,2.19,2.19,0,0,0-1.55.7l-1.57,1.57-.44-.23c-.17-.09-.34-.17-.48-.26a16.49,16.49,0,0,1-4-3.6A9.52,9.52,0,0,1,7.3,8.5c.41-.37.8-.76,1.17-1.14L8.87,7a2.23,2.23,0,0,0,.72-1.57,2.23,2.23,0,0,0-.72-1.57l-1.3-1.3-.45-.45c-.29-.3-.59-.6-.89-.88A2.14,2.14,0,0,0,4.7.5a2.24,2.24,0,0,0-1.55.68L1.52,2.81A3.38,3.38,0,0,0,.52,5a8.07,8.07,0,0,0,.61,3.5,20.59,20.59,0,0,0,3.64,6.06Z"/></g></g></svg>