<svg xmlns="http://www.w3.org/2000/svg" viewBox="0 0 15.63 17"><defs><style>.cls-1{fill:#a984bf;}</style></defs><title>Fichier 13</title><g id="Calque_2" data-name="Calque 2"><g id="Calque_1-2" data-name="Calque 1"><path class="cls-1" d="M8.53,8.66,4.86,6a.28.28,0,0,0-.4.4l2.65,3.67a1,1,0,0,0,.74.41h.08a1,1,0,0,0,.59-1.83ZM8.25,9.79a.45.45,0,0,1-.35.13.44.44,0,0,1-.32-.18L6,7.5,8.2,9.12a.44.44,0,0,1,.05.67Zm0,0"/><path class="cls-1" d="M15.2,7.37h0a7.56,7.56,0,0,0-.76-1.82v0a7.67,7.67,0,0,0-1-1.36L14,3.54l.4.4,1.2-1.2-1.2-1.2-1.2,1.2.4.4L13,3.75a7.75,7.75,0,0,0-1.36-1h0A7.62,7.62,0,0,0,9.8,2h0a7.63,7.63,0,0,0-1.13-.21V1.42h.42A.71.71,0,1,0,9.09,0H6.54a.71.71,0,0,0,0,1.42H7v.33A7.58,7.58,0,0,0,5.84,2h0A7.66,7.66,0,0,0,4,2.72H4a7.7,7.7,0,0,0-1.36,1L2,3.14l.4-.4L1.2,1.54,0,2.74l1.2,1.2.4-.4.61.61a7.73,7.73,0,0,0-1,1.36v0A7.5,7.5,0,0,0,.43,7.37h0a7.63,7.63,0,0,0,0,4h0a7.55,7.55,0,0,0,.76,1.82v0l0,0a7.71,7.71,0,0,0,1.19,1.55v0h0A7.66,7.66,0,0,0,4,16H4a7.6,7.6,0,0,0,1.82.75h0a7.64,7.64,0,0,0,4,0h0A7.6,7.6,0,0,0,11.61,16h0a7.7,7.7,0,0,0,1.55-1.19h0v0a7.7,7.7,0,0,0,1.19-1.55l0,0v0a7.61,7.61,0,0,0,.76-1.82h0a7.65,7.65,0,0,0,0-4Zm-.78-5,.4.4-.4.4-.4-.4ZM.8,2.74l.4-.4.4.4-.4.4ZM14,11.31l.54.15a7,7,0,0,1-.5,1.19l-.48-.28a.28.28,0,0,0-.28.49l.48.28a7.1,7.1,0,0,1-.78,1l-.39-.39a.28.28,0,0,0-.4.4l.39.39a7.18,7.18,0,0,1-1,.78l-.28-.48a.28.28,0,1,0-.49.28l.28.48a7.11,7.11,0,0,1-1.19.49l-.15-.54a.28.28,0,0,0-.55.15l.15.54a7,7,0,0,1-1.27.17v-.56a.28.28,0,1,0-.57,0v.56a7,7,0,0,1-1.27-.17l.14-.54a.28.28,0,0,0-.55-.15l-.15.54a7.11,7.11,0,0,1-1.19-.49l.28-.48a.28.28,0,0,0-.49-.28L4,15.33a7.19,7.19,0,0,1-1-.78l.39-.39a.28.28,0,1,0-.4-.4l-.39.39a7.21,7.21,0,0,1-.78-1l.48-.28A.28.28,0,0,0,2,12.36l-.48.28a7,7,0,0,1-.5-1.19l.54-.15a.28.28,0,1,0-.15-.55l-.54.14A7,7,0,0,1,.74,9.63H1.3a.28.28,0,1,0,0-.57H.74A7,7,0,0,1,.9,7.79l.54.15h.07a.28.28,0,0,0,.07-.56l-.54-.15a7,7,0,0,1,.5-1.19L2,6.34a.29.29,0,0,0,.39-.1.28.28,0,0,0-.1-.39l-.48-.28a7,7,0,0,1,.78-1L3,4.94a.28.28,0,0,0,.4,0,.28.28,0,0,0,0-.4L3,4.15a7.19,7.19,0,0,1,1-.78l.28.48A.29.29,0,0,0,4.56,4,.29.29,0,0,0,4.7,4a.28.28,0,0,0,.1-.39l-.28-.48a7.1,7.1,0,0,1,1.19-.5l.15.54a.28.28,0,0,0,.27.21H6.2A.28.28,0,0,0,6.4,3l-.14-.54a6.69,6.69,0,0,1,1-.15l.24,0h0v.56a.28.28,0,1,0,.57,0V2.27h0l.24,0a6.88,6.88,0,0,1,1,.15L9.23,3a.28.28,0,0,0,.2.35H9.5a.28.28,0,0,0,.27-.21l.15-.54a7.11,7.11,0,0,1,1.19.5l-.28.48a.28.28,0,0,0,.1.39.29.29,0,0,0,.14,0,.29.29,0,0,0,.25-.14l.28-.48a7.17,7.17,0,0,1,1,.78l-.39.39a.28.28,0,0,0,0,.4.28.28,0,0,0,.4,0L13,4.55a7.1,7.1,0,0,1,.78,1l-.48.28a.28.28,0,0,0,.14.53.3.3,0,0,0,.14,0l.48-.28a7,7,0,0,1,.5,1.19L14,7.39a.28.28,0,0,0,.07.56h.07l.54-.15a7.16,7.16,0,0,1,.17,1.28h-.56a.28.28,0,1,0,0,.57h.56a7.18,7.18,0,0,1-.17,1.28l-.54-.15a.28.28,0,1,0-.15.55Zm-6.5-9.6V.85h-1a.14.14,0,1,1,0-.28H9.09a.14.14,0,1,1,0,.28h-1v.86H7.53Zm0,0"/></g></g></svg>