<?xml version="1.0" encoding="utf-8"?>
<!-- Generator: Adobe Illustrator 21.0.0, SVG Export Plug-In . SVG Version: 6.00 Build 0)  -->
<svg version="1.1" id="Calque_1" xmlns="http://www.w3.org/2000/svg" xmlns:xlink="http://www.w3.org/1999/xlink" x="0px" y="0px"
	 viewBox="0 0 15.6 17" style="enable-background:new 0 0 15.6 17;" xml:space="preserve">
<style type="text/css">
	.st0{fill:#FFFFFF;}
</style>
<title>Fichier 13</title>
<g id="Calque_2">
	<g id="Calque_1-2">
		<path class="st0" d="M8.5,8.7L4.9,6C4.7,5.9,4.6,5.9,4.5,6s-0.1,0.3,0,0.4l2.7,3.7c0.2,0.2,0.4,0.4,0.7,0.4h0.1c0.6,0,1-0.4,1-1
			C9,9.2,8.8,8.8,8.5,8.7L8.5,8.7z M8.2,9.8C8.2,9.9,8,9.9,7.9,9.9c-0.1,0-0.2-0.1-0.3-0.2L6,7.5l2.2,1.6C8.4,9.3,8.4,9.5,8.2,9.8
			C8.3,9.8,8.3,9.8,8.2,9.8z"/>
		<path class="st0" d="M15.2,7.4L15.2,7.4c-0.2-0.6-0.4-1.2-0.8-1.8l0,0c-0.3-0.5-0.6-0.9-1-1.4L14,3.5l0.4,0.4l1.2-1.2l-1.2-1.2
			l-1.2,1.2l0.4,0.4L13,3.8c-0.4-0.4-0.9-0.7-1.4-1l0,0C11.1,2.4,10.4,2.2,9.8,2l0,0C9.4,1.9,9.1,1.8,8.7,1.8V1.4h0.4
			c0.4,0,0.7-0.3,0.7-0.7S9.5,0,9.1,0l0,0H6.5C6.1,0,5.8,0.3,5.8,0.7s0.3,0.7,0.7,0.7H7v0.3C6.6,1.8,6.2,1.9,5.8,2l0,0
			C5.2,2.2,4.6,2.4,4,2.7l0,0C3.5,3,3.1,3.3,2.6,3.7L2,3.1l0.4-0.4L1.2,1.5L0,2.7l1.2,1.2l0.4-0.4l0.6,0.6C1.8,4.6,1.5,5,1.2,5.5
			l0,0C0.9,6.1,0.6,6.7,0.4,7.4l0,0c-0.4,1.3-0.4,2.7,0,4l0,0c0.2,0.6,0.4,1.2,0.8,1.8l0,0l0,0c0.3,0.6,0.7,1.1,1.2,1.6l0,0l0,0
			c0.5,0.5,1,0.9,1.6,1.3l0,0c0.6,0.3,1.2,0.6,1.8,0.8l0,0c1.3,0.4,2.7,0.4,4,0l0,0c0.6-0.2,1.2-0.4,1.8-0.8l0,0
			c0.6-0.3,1.1-0.7,1.6-1.2l0,0l0,0c0.5-0.5,0.9-1,1.2-1.6l0,0l0,0c0.3-0.6,0.6-1.2,0.8-1.8l0,0C15.5,10.1,15.5,8.7,15.2,7.4
			L15.2,7.4z M14.4,2.4l0.4,0.4l-0.4,0.4L14,2.8L14.4,2.4z M0.8,2.7l0.4-0.4l0.4,0.4L1.2,3.1L0.8,2.7z M14,11.3l0.5,0.1
			c-0.1,0.4-0.3,0.8-0.5,1.2l-0.5-0.3c-0.1-0.1-0.3,0-0.4,0.1c-0.1,0.1,0,0.3,0.1,0.4l0,0l0.5,0.3c-0.2,0.4-0.5,0.7-0.8,1l-0.4-0.4
			c-0.1-0.1-0.3-0.1-0.4,0s-0.1,0.3,0,0.4l0,0l0.4,0.4c-0.3,0.3-0.6,0.6-1,0.8l-0.3-0.5c-0.1-0.1-0.2-0.2-0.4-0.1
			c-0.1,0.1-0.2,0.2-0.1,0.4l0.3,0.5c-0.4,0.2-0.8,0.4-1.2,0.5l-0.1-0.5c0-0.2-0.2-0.2-0.3-0.2c-0.2,0-0.2,0.2-0.2,0.3l0.1,0.5
			c-0.4,0.1-0.8,0.2-1.3,0.2v-0.6c0-0.2-0.1-0.3-0.3-0.3c-0.2,0-0.3,0.1-0.3,0.3l0,0v0.6c-0.4,0-0.9-0.1-1.3-0.2l0.1-0.5
			c0-0.2,0-0.3-0.2-0.3c-0.2,0-0.3,0-0.3,0.2l0,0l-0.2,0.5c-0.4-0.1-0.8-0.3-1.2-0.5l0.3-0.5c0.1-0.1,0-0.3-0.1-0.4
			c-0.1-0.1-0.3,0-0.4,0.1L4,15.3c-0.4-0.2-0.7-0.5-1-0.8l0.4-0.4c0.1-0.1,0.1-0.3,0-0.4c-0.1-0.1-0.3-0.1-0.4,0l0,0l-0.4,0.4
			c-0.3-0.3-0.5-0.6-0.8-1l0.5-0.3c0.1-0.1,0.2-0.3,0.1-0.4c-0.1-0.1-0.3-0.2-0.4-0.1l-0.5,0.3c-0.2-0.4-0.4-0.8-0.5-1.2l0.5-0.1
			c0.2,0,0.2-0.2,0.2-0.4c0-0.2-0.2-0.2-0.4-0.2l-0.5,0.1c-0.1-0.4-0.1-0.8-0.1-1.3h0.6c0.2,0,0.3-0.1,0.3-0.3S1.5,9.1,1.3,9.1H0.7
			c0-0.4,0.1-0.9,0.2-1.3l0.5,0.2h0.1c0.2,0,0.3-0.1,0.3-0.2c0-0.2-0.1-0.3-0.2-0.3l0,0L1,7.2C1.2,6.8,1.3,6.4,1.5,6L2,6.3
			c0.1,0.1,0.3,0,0.4-0.1c0.1-0.1,0-0.3-0.1-0.4c0,0,0,0,0,0L1.8,5.6c0.2-0.4,0.5-0.7,0.8-1L3,4.9c0.1,0.1,0.3,0.1,0.4,0
			c0,0,0,0,0,0c0.1-0.1,0.1-0.3,0-0.4c0,0,0,0,0,0L3,4.2c0.3-0.3,0.6-0.5,1-0.8l0.3,0.5C4.3,4,4.4,4,4.6,4c0,0,0.1,0,0.1,0
			c0.1-0.1,0.2-0.2,0.1-0.4c0,0,0,0,0,0L4.5,3.1c0.4-0.2,0.8-0.4,1.2-0.5l0.2,0.5c0,0.1,0.1,0.2,0.3,0.2h0.1c0.2,0,0.2-0.2,0.2-0.3
			c0,0,0,0,0,0L6.3,2.5c0.3-0.1,0.7-0.1,1-0.2h0.2l0,0v0.6c0,0.2,0.1,0.3,0.3,0.3S8.1,3,8.1,2.9l0,0V2.3l0,0h0.2
			c0.3,0,0.7,0.1,1,0.2L9.2,3c0,0.1,0,0.3,0.2,0.3c0,0,0,0,0,0h0.1c0.1,0,0.2-0.1,0.3-0.2l0.1-0.5c0.4,0.1,0.8,0.3,1.2,0.5l-0.3,0.5
			c-0.1,0.1,0,0.3,0.1,0.4c0,0,0,0,0,0c0,0,0.1,0,0.1,0c0.1,0,0.2-0.1,0.2-0.1l0.3-0.5c0.4,0.2,0.7,0.5,1,0.8l-0.4,0.4
			c-0.1,0.1-0.1,0.3,0,0.4c0,0,0,0,0,0c0.1,0.1,0.3,0.1,0.4,0c0,0,0,0,0,0L13,4.6c0.3,0.3,0.6,0.6,0.8,1l-0.5,0.3
			c-0.1,0.1-0.2,0.2-0.1,0.4c0,0.1,0.2,0.2,0.3,0.2c0,0,0.1,0,0.1,0l0.5-0.3c0.2,0.4,0.4,0.8,0.5,1.2L14,7.4c-0.2,0-0.3,0.2-0.2,0.3
			c0,0.2,0.2,0.3,0.3,0.2l0,0h0.1l0.5-0.2c0.1,0.4,0.2,0.8,0.2,1.3h-0.6c-0.2,0-0.3,0.1-0.3,0.3s0.1,0.3,0.3,0.3h0.6
			c0,0.4-0.1,0.9-0.2,1.3l-0.5-0.1c-0.2,0-0.3,0-0.3,0.2C13.7,11.1,13.8,11.3,14,11.3L14,11.3L14,11.3z M7.5,1.7V0.9h-1
			c-0.1,0-0.1-0.1-0.1-0.1c0-0.1,0.1-0.1,0.1-0.1c0,0,0,0,0,0h2.6c0.1,0,0.1,0.1,0.1,0.1S9.2,0.8,9.1,0.9c0,0,0,0,0,0h-1v0.9H7.5
			L7.5,1.7z"/>
	</g>
</g>
</svg>
