<svg xmlns="http://www.w3.org/2000/svg" viewBox="0 0 28.3 23"><defs><style>.cls-1{fill:#8e8e8e;opacity:0.4;}</style></defs><title>Fichier 9</title><g id="Calque_2" data-name="Calque 2"><g id="Calque_1-2" data-name="Calque 1"><path class="cls-1" d="M25.41,5.73c0,.25,0,.5,0,.75C25.42,14.15,19.58,23,8.9,23A16.42,16.42,0,0,1,0,20.39a11.78,11.78,0,0,0,1.38.08A11.65,11.65,0,0,0,8.6,18a5.81,5.81,0,0,1-5.42-4,5.93,5.93,0,0,0,1.09.1,5.82,5.82,0,0,0,1.53-.2,5.81,5.81,0,0,1-4.66-5.7V8.09a5.79,5.79,0,0,0,2.63.73A5.81,5.81,0,0,1,2,1.06a16.48,16.48,0,0,0,12,6.07,5.87,5.87,0,0,1-.15-1.32,5.81,5.81,0,0,1,10-4A11.69,11.69,0,0,0,27.52.42,5.83,5.83,0,0,1,25,3.63a11.62,11.62,0,0,0,3.33-.91A11.73,11.73,0,0,1,25.41,5.73Z"/></g></g></svg>