<?xml version="1.0" encoding="utf-8"?>
<!-- Generator: Adobe Illustrator 21.0.0, SVG Export Plug-In . SVG Version: 6.00 Build 0)  -->
<svg version="1.1" id="Calque_1" xmlns="http://www.w3.org/2000/svg" xmlns:xlink="http://www.w3.org/1999/xlink" x="0px" y="0px"
	 viewBox="0 0 55 55" style="enable-background:new 0 0 55 55;" xml:space="preserve">
<style type="text/css">
	.st0{fill:#FFFFFF;}
</style>
<title>Fichier 1</title>
<g id="Calque_2">
	<g id="Capa_1">
		<path class="st0" d="M55,27.5C55,12.3,42.7,0,27.5,0S0,12.3,0,27.5c0,7.7,3.2,15.1,8.9,20.3l0,0l0.9,0.8l0.2,0.1
			c0.5,0.4,1,0.8,1.5,1.1l0.5,0.3c0.5,0.4,1.1,0.7,1.6,1l0.4,0.2c0.6,0.3,1.2,0.7,1.9,1l0.1,0.1c2.1,1,4.4,1.7,6.6,2.1h0.2
			c0.7,0.1,1.5,0.2,2.2,0.3h0.3c0.7,0.1,1.5,0.1,2.2,0.1s1.5,0,2.2-0.1H30c0.7-0.1,1.5-0.2,2.2-0.3h0.2c2.3-0.4,4.5-1.1,6.6-2.1
			l0.2-0.1c0.6-0.3,1.2-0.6,1.8-0.9l0.4-0.2c0.5-0.3,1.1-0.7,1.6-1l0.5-0.4c0.4-0.3,0.9-0.6,1.3-1l0.3-0.2l0.9-0.8l0,0
			C51.8,42.6,55,35.2,55,27.5z M2,27.5C2,13.4,13.4,2,27.5,2S53,13.4,53,27.4c0,7.3-3.1,14.3-8.6,19.1c-0.3-0.2-0.6-0.4-0.9-0.5
			L35,41.8c-0.8-0.4-1.2-1.2-1.2-2v-3c0.2-0.2,0.4-0.5,0.6-0.8c1.1-1.6,2-3.3,2.6-5.1c1.3-0.6,2.1-1.9,2.1-3.3v-3.5
			c0-0.9-0.3-1.7-0.9-2.4V17c0.2-2.1-0.5-4.2-1.9-5.9C34.5,9.1,31.5,8,27.5,8s-7,1.1-8.9,3.2c-1.4,1.6-2,3.7-1.9,5.8v4.7
			c-0.6,0.7-0.9,1.5-0.9,2.4v3.5c0,1.1,0.5,2.1,1.3,2.8c0.6,2.3,1.7,4.5,3.1,6.4v2.9c0,0.8-0.4,1.6-1.2,2L11.2,46
			c-0.3,0.1-0.5,0.3-0.8,0.5C5.1,41.6,2,34.7,2,27.5z M42.5,48.1c-0.3,0.3-0.7,0.5-1.1,0.7l-0.5,0.3c-0.5,0.3-1,0.6-1.4,0.8
			l-0.3,0.2c-1.1,0.6-2.3,1.1-3.5,1.5h-0.1c-0.6,0.2-1.3,0.4-1.9,0.5l0,0c-0.7,0.2-1.3,0.3-2,0.4h0c-0.6,0.1-1.2,0.2-1.9,0.2h-0.3
			c-0.6,0-1.2,0.1-1.9,0.1s-1.3,0-1.9-0.1h-0.3c-0.6-0.1-1.3-0.1-1.9-0.2h-0.1c-1.3-0.2-2.6-0.6-3.9-1h-0.1
			c-0.6-0.2-1.2-0.5-1.9-0.7l0,0c-0.6-0.2-1.1-0.5-1.7-0.8L15.5,50c-0.5-0.3-1-0.6-1.5-0.9l-0.4-0.3c-0.4-0.3-0.9-0.6-1.3-0.9
			l-0.1-0.1l0.1,0l7.9-4.3c1.4-0.7,2.2-2.2,2.2-3.7v-3.6l-0.2-0.3c-1.4-1.8-2.4-4-3-6.2L19,29.2L18.6,29c-0.5-0.3-0.8-0.8-0.8-1.4
			v-3.5c0-0.5,0.2-0.9,0.6-1.2l0.3-0.3v-5.7c-0.1-1.6,0.4-3.1,1.4-4.4c1.4-1.7,3.9-2.5,7.4-2.5s5.9,0.8,7.3,2.5
			c1,1.2,1.5,2.8,1.4,4.4v5.7l0.3,0.3c0.4,0.3,0.6,0.8,0.6,1.2v3.5c0,0.7-0.5,1.3-1.2,1.6l-0.5,0.1l-0.2,0.5c-0.6,1.8-1.4,3.5-2.5,5
			c-0.3,0.4-0.5,0.7-0.7,1l-0.2,0.3v3.7c0,1.6,0.9,3.1,2.3,3.8l8.5,4.2l0.2,0.1L42.5,48.1z"/>
	</g>
</g>
</svg>
