<svg xmlns="http://www.w3.org/2000/svg" viewBox="0 0 45.18 29.28"><defs><style>.cls-1{fill:#0069b2;}</style></defs><title>Fichier 1</title><g id="Calque_2" data-name="Calque 2"><g id="Calque_1-2" data-name="Calque 1"><path class="cls-1" d="M44,0H1.16A1.16,1.16,0,0,0,0,1.16v27a1.16,1.16,0,0,0,1.16,1.16H44a1.16,1.16,0,0,0,1.16-1.16v-27A1.16,1.16,0,0,0,44,0ZM3.5,8.85H8.32a1.26,1.26,0,0,1,1.36.93l1.05,5C9.7,12.18,7.21,10,3.46,9.08ZM9.33,20.36,6.55,10.84a12.17,12.17,0,0,1,4.31,4.73l.33,1.18,3-7.79h3.3l-4.9,11.39Zm10.61,0H16.84L18.78,8.95h3.11Zm5.41.17a9.83,9.83,0,0,1-3.46-.61l.44-2.56.4.18a6.53,6.53,0,0,0,2.93.6c.9,0,1.85-.35,1.86-1.11,0-.5-.4-.86-1.61-1.41s-2.75-1.46-2.73-3.1c0-2.22,2.18-3.77,5.26-3.77a8.08,8.08,0,0,1,2.79.48l-.42,2.47-.28-.13a5.74,5.74,0,0,0-2.33-.44c-1.22,0-1.78.51-1.78,1s.66.89,1.75,1.41c1.79.82,2.63,1.8,2.61,3.1,0,2.37-2.15,3.9-5.42,3.9Zm13.48-.16s-.29-1.31-.38-1.71h-4c-.12.31-.65,1.71-.65,1.71H30.55L35.18,9.91A1.55,1.55,0,0,1,36.8,9h2.4l2.52,11.41Zm0,0"/><path class="cls-1" d="M37,12c-.16.43-.43,1.12-.41,1.09l-1.24,3.19H38L37.23,13Zm0,0"/></g></g></svg>