<?xml version="1.0" encoding="utf-8"?>
<!-- Generator: Adobe Illustrator 21.0.0, SVG Export Plug-In . SVG Version: 6.00 Build 0)  -->
<svg version="1.1" id="Calque_1" xmlns="http://www.w3.org/2000/svg" xmlns:xlink="http://www.w3.org/1999/xlink" x="0px" y="0px"
	 viewBox="0 0 15 15" style="enable-background:new 0 0 15 15;" xml:space="preserve">
<style type="text/css">
	.st0{fill:#FFFFFF;}
</style>
<title>Fichier 14</title>
<g id="Calque_2">
	<g id="Calque_1-2">
		<path class="st0" d="M7.5,15C3.4,15,0,11.6,0,7.5S3.4,0,7.5,0S15,3.4,15,7.5S11.6,15,7.5,15z M7.5,1C3.9,1,0.9,3.9,0.9,7.5
			s2.9,6.6,6.5,6.6S14,11.2,14,7.6V7.5C14,3.9,11.1,1,7.5,1z"/>
		<path class="st0" d="M7.5,11.2c-2,0-3.7-1.6-3.7-3.7s1.6-3.7,3.7-3.7s3.7,1.6,3.7,3.7l0,0C11.2,9.5,9.5,11.2,7.5,11.2z M7.5,4.8
			C6,4.8,4.8,6,4.8,7.5s1.2,2.7,2.7,2.7s2.7-1.2,2.7-2.7S9,4.8,7.5,4.8z"/>
		<path class="st0" d="M8.8,7.2c-0.6,0-1-0.4-1-1c0-0.1,0-0.2,0-0.3C6.9,5.7,6.1,6.3,5.9,7.2s0.4,1.7,1.3,1.9s1.7-0.4,1.9-1.3
			c0-0.2,0-0.4,0-0.7C9,7.2,8.9,7.2,8.8,7.2z"/>
	</g>
</g>
</svg>
