<svg xmlns="http://www.w3.org/2000/svg" viewBox="0 0 20.75 22.64"><defs><style>.cls-1{fill:#32c5d2;}</style></defs><title>Fichier 27</title><g id="Calque_2" data-name="Calque 2"><g id="Calque_1-2" data-name="Calque 1"><path class="cls-1" d="M10.38,3.77a6.6,6.6,0,1,0,6.6,6.6A6.61,6.61,0,0,0,10.38,3.77Zm0,12.26A5.66,5.66,0,1,1,16,10.38,5.66,5.66,0,0,1,10.38,16Zm3.3-12.26a.47.47,0,1,0-.47-.47A.47.47,0,0,0,13.68,3.77Zm4.26,13.69a10.38,10.38,0,1,0-15.11,0l-.47,2.36a2.36,2.36,0,0,0,2.31,2.82H16.09a2.36,2.36,0,0,0,2.31-2.82Zm-.75,3.72a1.41,1.41,0,0,1-1.09.52H4.66A1.41,1.41,0,0,1,3.27,20l.35-1.76a10.32,10.32,0,0,0,13.5,0L17.48,20A1.41,1.41,0,0,1,17.19,21.18Zm-6.81-1.37a9.43,9.43,0,1,1,9.43-9.43A9.44,9.44,0,0,1,10.38,19.81Zm0-14.15a4.72,4.72,0,1,0,4.72,4.72A4.72,4.72,0,0,0,10.38,5.66Zm0,8.49a3.77,3.77,0,1,1,3.77-3.77A3.78,3.78,0,0,1,10.38,14.15Zm0-6.6a2.83,2.83,0,0,0-2.83,2.83.47.47,0,0,0,.94,0,1.89,1.89,0,0,1,1.89-1.89.47.47,0,0,0,0-.94Z"/></g></g></svg>