<svg xmlns="http://www.w3.org/2000/svg" viewBox="0 0 28 28"><defs><style>.cls-1{opacity:0.4;}.cls-2{fill:#8e8e8e;}</style></defs><title>Fichier 10</title><g id="Calque_2" data-name="Calque 2"><g id="Calque_1-2" data-name="Calque 1"><g class="cls-1"><path class="cls-2" d="M0,14A14,14,0,0,0,7.89,26.6L1.21,8.3A14,14,0,0,0,0,14Zm23.45-.71A7.37,7.37,0,0,0,22.3,9.43a6.55,6.55,0,0,1-1.37-3.28,2.42,2.42,0,0,1,2.35-2.48h.18A14,14,0,0,0,2.3,6.31l.9,0c1.46,0,3.73-.18,3.73-.18A.58.58,0,0,1,7,7.3s-.76.09-1.6.13l5.1,15.16,3.06-9.19-2.18-6c-.75,0-1.47-.13-1.47-.13A.58.58,0,0,1,10,6.15s2.31.18,3.69.18,3.73-.18,3.73-.18a.58.58,0,0,1,.09,1.15s-.76.09-1.6.13l5.06,15,1.4-4.66a13,13,0,0,0,1.07-4.53Zm-9.2,1.93L10,27.43a14,14,0,0,0,8.6-.22,1.32,1.32,0,0,1-.1-.19Zm12-7.94a10.75,10.75,0,0,1,.09,1.44,13.22,13.22,0,0,1-1.06,5L21,26.1A14,14,0,0,0,26.28,7.28Zm0,0"/></g></g></g></svg>