<svg xmlns="http://www.w3.org/2000/svg" viewBox="0 0 82.78 67"><defs><style>.cls-1{fill:#27a8b4;}.cls-2{fill:#fff;}</style></defs><title>Fichier 11</title><g id="Calque_2" data-name="Calque 2"><g id="Calque_1-2" data-name="Calque 1"><path class="cls-1" d="M44,0c.09,0,.17.13.26.14a31.32,31.32,0,0,1,6.3,1.15,32.38,32.38,0,0,1,6.28,2.5,30.12,30.12,0,0,1,6,4c1,.85,1.94,1.72,2.83,2.65a32.19,32.19,0,0,1,4.69,6.26,31.63,31.63,0,0,1,2.94,6.62c.41,1.32.72,2.68,1,4a1.28,1.28,0,0,0,.62.87l7.67,5.11.21.15-2.71,1.82c-1.71,1.14-3.42,2.3-5.15,3.41a1.55,1.55,0,0,0-.69,1.15,32.32,32.32,0,0,1-3.54,9.79,34.32,34.32,0,0,1-3.81,5.51,33.59,33.59,0,0,1-19.09,11.2,32.34,32.34,0,0,1-8.05.58,33.52,33.52,0,0,1-18.9-7,34.35,34.35,0,0,1-5.61-5.54,33.65,33.65,0,0,1-4.44-7.27,30,30,0,0,1-2.31-7.47,1.19,1.19,0,0,0-.56-.85Q4.09,36.26.28,33.71L0,33.5c.18-.14.32-.27.48-.37C3,31.48,5.42,29.82,7.91,28.19a1.17,1.17,0,0,0,.56-.84,32.81,32.81,0,0,1,2-6.84,30.57,30.57,0,0,1,4.13-7.15A40.61,40.61,0,0,1,17.82,9.7a32.47,32.47,0,0,1,7-5.29A34.1,34.1,0,0,1,35.7.47C36.62.3,37.55.25,38.47.14A1.17,1.17,0,0,0,38.78,0ZM64.26,33.51a22.91,22.91,0,1,0-23.44,22.9A22.9,22.9,0,0,0,64.26,33.51Z"/><path class="cls-2" d="M33.42,47.13a15.83,15.83,0,1,1,15.86,0A8,8,0,0,0,46.5,42a7.95,7.95,0,0,0-10.6.3C34.69,43.4,34.27,44.24,33.42,47.13Zm3.64-13.66a4.31,4.31,0,0,0,8.63.06,4.31,4.31,0,1,0-8.63-.06Z"/></g></g></svg>